<?xml version="1.0" standalone="no"?>
<!DOCTYPE svg PUBLIC "-//W3C//DTD SVG 20010904//EN"
 "http://www.w3.org/TR/2001/REC-SVG-20010904/DTD/svg10.dtd">
<svg version="1.0" xmlns="http://www.w3.org/2000/svg"
 width="10667.000000pt" height="7000.000000pt" viewBox="0 0 10667.000000 7000.000000"
 preserveAspectRatio="xMidYMid meet">

<g transform="translate(0.000000,7000.000000) scale(0.100000,-0.100000)"
fill="#000000" stroke="none">
<path d="M2822 32848 c-60 -88 -216 -413 -714 -1487 -169 -367 -225 -497 -216
-503 24 -14 112 -28 241 -37 70 -5 131 -11 134 -14 3 -4 -86 -201 -197 -439
-421 -899 -558 -1194 -564 -1215 l-7 -23 220 0 c184 0 221 -2 221 -14 0 -8
-29 -82 -64 -164 -62 -144 -104 -223 -125 -237 -12 -7 -272 110 -1101 495
-311 145 -579 269 -597 276 l-31 13 -6 -47 c-3 -26 -9 -6663 -12 -14750 l-6
-14702 53336 0 53336 0 0 12225 c0 6724 -3 12225 -6 12225 -4 0 -156 -69 -338
-154 -407 -190 -512 -236 -535 -236 -51 0 -184 230 -335 578 -36 84 -66 157
-66 162 0 19 81 30 233 30 96 0 157 4 157 10 0 5 -101 228 -225 495 -340 731
-427 927 -418 936 10 10 115 26 230 35 l91 6 -43 92 c-391 837 -516 1112 -531
1170 -5 23 -1 26 47 40 29 9 91 19 136 23 52 4 83 10 83 17 0 16 -439 956
-596 1276 l-125 255 -19 -25 c-31 -39 -151 -267 -253 -480 -144 -299 -477
-1017 -477 -1029 0 -6 20 -11 48 -11 94 -1 186 -18 200 -37 27 -37 -2 -114
-195 -523 -269 -568 -359 -768 -349 -777 3 -3 63 -8 133 -10 71 -2 142 -6 160
-9 29 -4 31 -7 23 -29 -11 -30 -379 -827 -533 -1155 -65 -139 -110 -246 -104
-247 7 -1 95 -7 197 -13 101 -6 186 -13 189 -15 2 -3 -11 -40 -29 -82 -35 -81
-404 -866 -551 -1171 l-84 -173 -73 164 c-39 90 -72 171 -72 180 0 32 43 46
170 57 69 6 128 12 132 13 4 1 -84 200 -196 442 -260 563 -368 806 -361 813 3
3 56 9 119 13 146 9 160 13 153 48 -20 100 -715 1536 -740 1528 -7 -2 -47 -71
-89 -153 -154 -297 -601 -1239 -639 -1347 -21 -58 -6 -67 139 -76 67 -4 124
-10 127 -13 7 -7 -116 -280 -373 -828 l-200 -425 118 -11 c145 -15 198 -23
205 -34 6 -9 -97 -239 -424 -942 -121 -263 -221 -482 -221 -487 0 -5 75 -11
168 -13 92 -3 175 -8 185 -12 9 -5 17 -17 17 -28 0 -33 -56 -162 -177 -409
l-115 -236 -477 -223 c-262 -123 -789 -369 -1171 -547 l-695 -324 -19 23 c-47
59 -272 556 -257 571 11 11 146 26 241 27 90 0 160 14 160 31 0 18 -247 554
-565 1227 -76 161 -136 294 -133 297 3 3 338 45 362 45 2 0 -80 179 -183 398
-339 717 -450 975 -434 1002 16 24 81 38 181 39 67 1 94 5 98 14 2 7 -33 96
-79 198 -186 408 -664 1412 -690 1449 -13 19 -15 19 -29 3 -24 -27 -106 -179
-216 -400 -143 -285 -585 -1233 -579 -1239 5 -5 174 -23 225 -24 37 0 64 -36
57 -73 -13 -63 -81 -218 -258 -592 -219 -463 -337 -727 -337 -754 0 -27 25
-33 164 -40 104 -5 120 -8 131 -26 28 -43 -1 -112 -384 -929 -155 -329 -280
-601 -277 -604 3 -3 100 -10 216 -17 116 -7 212 -14 214 -16 4 -5 -205 -441
-253 -527 -47 -85 -97 -143 -119 -135 -43 16 -640 290 -1288 592 -392 182
-714 331 -717 331 -2 0 -387 -180 -856 -399 l-851 -399 -208 93 c-296 132
-607 279 -906 430 l-259 130 -124 270 c-133 288 -267 594 -301 686 -21 56 -21
57 -2 74 14 12 46 20 104 25 107 10 126 16 126 41 0 66 -685 1505 -713 1496
-18 -5 -228 -432 -488 -989 -125 -269 -230 -497 -234 -507 -5 -16 3 -19 75
-25 90 -8 172 -29 188 -49 7 -8 1 -35 -22 -92 -40 -97 -102 -221 -115 -229
-13 -8 -519 222 -1801 819 -1357 632 -2279 1045 -2433 1090 -52 15 -59 21
-100 83 -25 37 -66 110 -92 161 -52 104 -282 593 -295 627 -11 27 -5 28 175
45 72 6 131 13 133 14 1 1 -113 249 -254 551 -141 302 -258 554 -260 560 -3 6
30 14 88 21 104 12 148 28 148 53 0 26 -39 117 -251 577 -109 238 -199 437
-199 442 0 11 75 27 168 37 34 4 62 8 62 10 0 1 -95 207 -211 456 -224 480
-375 788 -388 788 -7 0 -168 -323 -281 -565 -187 -399 -310 -668 -310 -680 0
-16 31 -25 95 -25 56 0 98 -17 103 -42 4 -22 -117 -301 -297 -687 -84 -178
-150 -325 -147 -328 3 -3 60 -10 128 -16 68 -5 127 -13 132 -17 4 -5 -64 -160
-152 -347 -211 -446 -351 -749 -358 -779 -4 -16 -2 -24 7 -25 8 -1 80 -4 160
-8 l146 -6 -85 -180 c-245 -523 -554 -1191 -555 -1200 -1 -5 38 -13 88 -17
120 -9 216 -28 221 -43 6 -15 -119 -286 -254 -550 l-97 -189 -324 -148 c-179
-81 -330 -148 -336 -148 -14 0 -965 2039 -965 2069 0 20 84 32 285 39 259 9
254 6 205 124 -102 250 -767 1659 -1117 2368 -173 349 -176 354 -192 331 -23
-35 -200 -404 -448 -936 -118 -253 -361 -774 -540 -1159 l-327 -698 -24 48
c-45 87 -302 635 -302 643 0 4 71 12 158 19 164 13 202 19 202 32 0 5 -104
235 -231 512 -227 493 -322 705 -369 821 -21 50 -22 59 -9 72 15 15 125 34
200 35 25 0 53 6 63 13 18 13 15 22 -47 163 -226 514 -709 1534 -726 1534 -17
0 -57 -76 -309 -580 -356 -710 -533 -1093 -514 -1112 12 -12 138 -27 235 -27
47 -1 69 -5 73 -14 5 -15 -57 -156 -289 -652 -334 -718 -351 -756 -336 -766 8
-5 41 -9 74 -9 117 -1 265 -25 265 -43 0 -29 -672 -1479 -681 -1469 -14 15
-163 341 -190 415 -55 149 -46 158 169 168 86 4 159 8 161 8 13 3 -51 145
-454 1011 -167 360 -248 541 -243 545 8 8 139 24 246 31 61 4 112 9 112 11 0
5 -386 838 -563 1213 -151 322 -323 666 -337 675 -15 9 -296 -566 -624 -1277
-152 -329 -276 -602 -276 -607 0 -5 57 -12 128 -16 214 -11 221 -16 180 -133
-15 -42 -96 -228 -181 -412 -85 -184 -176 -383 -202 -443 -27 -59 -52 -104
-55 -100 -4 5 -85 172 -179 373 -95 201 -212 446 -260 545 l-88 180 -82 -170
c-114 -233 -346 -728 -611 -1300 -257 -556 -495 -1045 -508 -1045 -16 0 -41
35 -67 95 -31 70 -70 125 -90 125 -15 0 -85 -140 -342 -685 -397 -841 -547
-1175 -533 -1189 5 -5 65 -13 132 -18 141 -9 182 -18 186 -41 6 -29 -347 -812
-359 -799 -17 17 -200 388 -229 462 -26 69 -29 85 -18 96 18 18 105 34 187 34
79 0 96 8 86 41 -11 34 -145 327 -270 589 -179 377 -221 484 -197 513 8 9 44
16 113 20 56 4 104 9 107 11 7 8 -10 46 -202 463 -186 405 -246 542 -246 567
0 21 28 34 91 41 101 12 102 12 96 48 -9 53 -237 547 -447 967 -114 228 -123
243 -137 225 -37 -49 -418 -844 -524 -1092 -57 -133 -54 -143 41 -143 58 0 95
-12 104 -35 10 -26 -35 -144 -144 -380 -230 -495 -281 -609 -287 -636 -5 -25
-2 -29 18 -30 93 -2 202 -18 209 -29 12 -19 -73 -215 -241 -555 -116 -236
-186 -358 -200 -350 -14 9 -154 292 -340 687 -177 378 -307 638 -319 638 -21
0 -880 -1849 -880 -1894 0 -27 43 -39 163 -44 89 -4 123 -9 138 -21 20 -16 20
-17 -6 -91 -35 -100 -307 -652 -316 -643 -9 11 -497 1034 -501 1053 -2 11 14
16 75 22 101 11 147 29 147 59 0 58 -592 1339 -619 1339 -14 0 -68 -98 -240
-440 -154 -305 -333 -684 -391 -827 -43 -106 -41 -109 89 -118 55 -4 104 -11
110 -15 14 -8 15 -7 -186 -443 -86 -186 -159 -334 -163 -330 -11 12 -199 428
-233 516 -17 42 -27 80 -24 83 11 11 90 23 155 24 64 0 132 21 132 39 0 30
-566 1265 -732 1595 l-71 141 -75 -150 c-222 -442 -742 -1559 -742 -1595 0
-18 77 -30 198 -30 67 0 122 -1 122 -3 0 -17 -171 -393 -370 -812 -78 -165
-162 -343 -187 -395 l-44 -94 -165 359 c-378 823 -631 1352 -667 1400 -15 19
-22 6 -131 -215 -129 -264 -787 -1672 -784 -1676 2 -1 61 -7 131 -13 151 -13
217 -27 217 -48 0 -8 -18 -55 -39 -106 -43 -101 -216 -476 -223 -482 -4 -4
-518 1097 -514 1101 0 1 56 7 124 13 68 6 139 18 159 26 44 18 44 16 -41 206
-152 343 -664 1398 -729 1503 l-24 38 -21 -36 c-29 -50 -197 -402 -379 -796
-239 -518 -349 -740 -367 -740 -18 0 -51 43 -101 133 -20 37 -39 67 -40 65 -2
-2 -33 -73 -70 -158 -79 -182 -135 -295 -163 -330 l-20 -24 -22 34 c-42 67
-319 639 -531 1097 -136 295 -217 458 -222 450 -5 -6 -53 -111 -107 -232 -54
-121 -101 -220 -105 -220 -4 0 -123 252 -266 560 -476 1027 -691 1475 -709
1475 -13 0 -163 -308 -429 -877 -283 -607 -399 -843 -416 -843 -32 0 -116 147
-272 480 -63 135 -118 248 -121 252 -7 7 -326 -659 -544 -1137 l-128 -280 135
-3 c103 -2 135 -6 135 -16 0 -14 -240 -526 -340 -726 -68 -135 -138 -260 -169
-300 l-20 -25 -104 215 c-57 118 -145 303 -195 410 -49 107 -136 294 -192 415
-135 291 -320 665 -329 665 -24 0 -881 -1844 -881 -1894 0 -24 39 -35 138 -41
117 -8 164 -14 180 -24 11 -7 4 -33 -36 -127 -127 -301 -397 -847 -416 -841
-31 9 -503 995 -531 1109 -6 24 -3 27 32 37 21 6 84 11 141 11 63 0 102 4 102
10 0 6 -17 45 -39 88 -106 212 -482 1014 -477 1019 3 3 63 10 133 16 70 5 129
11 131 13 4 3 -379 824 -528 1130 -59 122 -112 224 -118 228 -7 4 -22 -11 -39
-36 -44 -70 -303 -585 -426 -848 -162 -345 -210 -461 -198 -473 12 -12 95 -25
169 -26 34 -1 54 -6 58 -14 3 -8 -18 -66 -46 -130 -52 -121 -278 -608 -284
-615 -7 -6 -173 340 -200 416 -30 86 -33 117 -8 128 9 4 88 9 175 12 86 2 157
5 157 7 0 1 -97 209 -216 461 -309 655 -605 1294 -649 1399 -21 50 -41 93 -44
97 -4 4 -53 -95 -111 -220 -135 -294 -262 -545 -277 -550 -15 -4 -243 453
-478 958 -262 563 -330 703 -350 720 -16 13 -20 11 -47 -20 -38 -44 -250 -475
-548 -1112 -128 -274 -236 -498 -239 -498 -3 0 -28 49 -56 108 -27 59 -101
215 -163 347 -230 484 -263 566 -243 603 15 27 28 31 164 43 67 5 123 11 124
13 3 2 -430 936 -561 1211 -78 162 -219 429 -246 465 l-19 25 -120 -245 c-126
-259 -676 -1430 -686 -1461 -6 -18 1 -19 99 -19 106 0 201 -14 211 -31 4 -5
-11 -50 -31 -101 -42 -105 -231 -519 -243 -531 -4 -4 -50 86 -101 200 -51 114
-198 433 -327 708 -284 606 -377 814 -368 823 3 4 77 10 163 13 178 8 231 16
239 35 8 22 -63 186 -362 834 -205 443 -307 668 -353 777 l-31 73 21 11 c12 6
94 16 182 21 89 5 164 12 168 16 11 11 -223 527 -640 1408 -213 449 -299 624
-310 624 -27 0 -281 -511 -719 -1449 -140 -300 -257 -553 -260 -562 -4 -14 12
-17 114 -23 137 -8 235 -23 257 -39 12 -10 8 -27 -33 -122 -142 -325 -515
-1095 -531 -1095 -16 0 -280 545 -745 1540 -292 624 -513 1089 -529 1112 -13
18 -18 11 -70 -85 -104 -193 -574 -1169 -923 -1915 -242 -519 -343 -747 -343
-777 0 -17 7 -28 23 -34 12 -4 125 -11 250 -14 125 -4 234 -10 242 -14 11 -6
-1 -40 -54 -158 -118 -264 -324 -695 -331 -695 -30 0 -236 90 -559 244 -134
64 -246 116 -251 116 -4 0 -271 -124 -593 -275 -832 -389 -1192 -546 -1262
-549 -29 -1 -33 4 -107 154 -104 210 -442 939 -437 944 2 2 63 9 134 16 72 7
131 13 132 14 0 0 -108 233 -241 516 -261 555 -405 844 -421 844 -13 0 -146
-260 -301 -589 -206 -438 -341 -695 -365 -695 -11 0 -82 144 -356 719 -98 206
-184 376 -190 378 -20 7 -462 -896 -613 -1251 -54 -125 -52 -128 90 -137 55
-3 103 -9 106 -12 9 -9 1 -27 -189 -437 -158 -340 -278 -605 -298 -657 -15
-40 25 -55 161 -61 66 -3 120 -7 120 -9 0 -11 -213 -424 -245 -475 l-36 -57
-47 18 c-195 78 -1760 815 -2241 1056 -105 52 -191 99 -191 104 0 17 47 22
275 31 266 10 289 13 279 43 -11 34 -345 766 -574 1257 -248 532 -460 997
-460 1009 0 14 67 21 215 22 156 1 310 11 320 20 9 9 -296 671 -838 1819 -371
785 -473 995 -487 995 -23 0 -339 -634 -763 -1525 -295 -621 -577 -1242 -577
-1270 0 -17 75 -30 245 -41 94 -6 198 -13 232 -15 l61 -5 -33 -72 c-238 -522
-489 -1035 -509 -1043 -22 -8 -174 45 -356 126 -257 115 -285 121 -441 94 -32
-5 -39 -2 -67 31 -18 20 -59 89 -91 153 -87 173 -361 771 -361 787 0 17 86 36
151 34 107 -4 105 3 -156 566 -227 492 -395 815 -425 815 -28 0 -620 -1277
-620 -1338 0 -27 59 -49 154 -58 42 -4 76 -10 76 -14 0 -4 -61 -135 -136 -291
-250 -522 -334 -715 -334 -761 1 -34 20 -43 106 -49 78 -5 89 -8 110 -32 19
-22 21 -32 14 -58 -14 -49 -57 -99 -85 -99 -38 0 -175 46 -339 115 -226 94
-592 263 -2021 930 -1195 558 -1302 606 -1330 597 -16 -5 -334 -152 -705 -327
-1214 -570 -2582 -1205 -2998 -1392 -139 -62 -147 -64 -160 -46 -47 63 -376
752 -388 812 -7 34 -2 36 135 45 116 8 115 4 26 207 -162 365 -498 1041 -570
1147 l-23 34 -16 -24 c-30 -46 -640 -1338 -634 -1343 2 -1 61 -8 132 -14 71
-6 132 -13 134 -16 5 -5 -57 -137 -365 -782 -84 -177 -153 -324 -153 -327 0
-3 44 -6 98 -7 127 0 166 -13 170 -56 7 -74 -139 -363 -228 -453 -46 -46 -88
-72 -235 -147 -299 -151 -573 -263 -647 -263 -22 0 -245 99 -698 311 -366 171
-865 404 -1110 519 -245 114 -512 240 -595 280 l-150 73 138 23 c76 12 141 25
144 28 3 3 -122 276 -277 608 -410 874 -570 1227 -570 1257 0 13 53 21 225 30
174 10 189 14 181 47 -8 32 -161 369 -394 869 -295 635 -354 768 -339 776 6 4
79 10 161 14 157 7 196 15 196 39 0 69 -936 2056 -961 2041 -13 -9 -214 -411
-371 -745 -223 -472 -610 -1311 -606 -1314 1 -2 86 -11 188 -21 102 -10 189
-21 193 -25 5 -4 -161 -371 -368 -816 -208 -445 -379 -817 -382 -826 -6 -21 7
-23 235 -37 96 -6 180 -14 187 -19 9 -5 -1 -37 -42 -127 -110 -240 -463 -994
-548 -1172 l-87 -181 -37 13 c-114 41 -846 375 -2025 924 -462 215 -845 391
-851 391 -11 0 -384 -171 -1144 -524 l-294 -137 -911 422 c-1333 618 -2391
1116 -2756 1299 l-156 78 -60 113 c-171 320 -724 1503 -736 1574 -5 31 51 43
230 51 88 4 166 10 172 14 13 8 -57 167 -350 795 -259 554 -390 845 -390 865
0 14 92 29 224 34 72 3 134 10 139 15 7 7 -5 45 -33 108 -103 235 -670 1456
-834 1796 -76 156 -87 164 -134 95z m41353 -8447 c38 -10 37 -20 -26 -143 -51
-102 -59 -137 -34 -158 8 -7 75 -16 162 -21 81 -6 171 -12 199 -15 l51 -5
-145 -320 c-80 -175 -148 -319 -152 -319 -8 0 -294 618 -376 815 -35 82 -59
154 -55 158 24 24 298 30 376 8z m34528 -2 c21 -6 40 -16 43 -24 3 -7 -7 -44
-22 -82 -37 -95 -169 -352 -199 -388 l-25 -30 -19 25 c-42 53 -231 442 -231
475 0 37 336 55 453 24z m-40948 -203 c20 -9 35 -22 35 -31 0 -62 -220 -495
-251 -495 -17 0 -59 77 -105 189 -25 62 -44 115 -42 116 2 2 46 8 98 14 126
16 139 27 122 109 -7 32 -12 66 -12 75 0 35 93 49 155 23z m38254 -662 c21 -5
31 -12 31 -25 0 -27 -117 -253 -145 -279 l-23 -22 -26 39 c-25 37 -52 99 -101
228 l-24 65 128 0 c71 0 143 -3 160 -6z m2341 -4 c13 -8 8 -22 -27 -95 -24
-47 -47 -85 -51 -85 -9 0 -82 148 -82 167 0 6 6 14 13 16 22 9 132 7 147 -3z
m24708 -467 c11 -21 6 -38 -20 -75 -24 -35 -51 -36 -66 -3 -17 36 -15 52 8 75
25 25 66 26 78 3z m-63968 -28 c0 -7 -140 -76 -173 -86 -44 -13 -77 5 -77 40
0 26 5 32 33 40 33 9 217 15 217 6z m33085 -84 c24 -5 30 -11 28 -31 -4 -35
-70 -164 -98 -190 l-23 -22 -31 42 c-37 51 -80 140 -84 172 -2 27 26 36 118
36 33 0 74 -3 90 -7z m-25103 -799 c10 -10 -91 -263 -132 -329 -28 -46 -53
-43 -85 11 -31 54 -135 302 -135 324 0 13 21 14 171 9 94 -3 176 -10 181 -15z
m2127 -507 c11 -11 11 -20 1 -51 -15 -50 -242 -514 -250 -514 -9 0 -165 306
-180 353 -14 45 -7 82 17 92 10 4 70 11 134 15 63 4 124 12 135 18 11 6 26 29
33 52 17 57 69 74 110 35z m1341 20 c0 -12 -125 -255 -131 -255 -4 0 -31 47
-60 105 -58 116 -59 134 -3 146 35 8 194 11 194 4z m-3389 -146 c24 -24 21
-47 -14 -119 -29 -59 -53 -60 -84 -1 -28 53 -31 116 -5 130 29 18 80 13 103
-10z m21722 -119 c12 -11 -24 -90 -52 -114 -20 -18 -22 -18 -40 -2 -40 36 -33
107 11 126 24 10 67 5 81 -10z m-194 -371 c17 -6 31 -16 31 -23 0 -19 -74
-137 -92 -147 -21 -11 -39 13 -73 98 -17 42 -21 61 -13 70 13 16 103 17 147 2z
m-8380 -790 c37 -13 40 -38 13 -84 -22 -36 -80 -95 -93 -95 -14 0 -45 56 -60
107 -12 44 -11 47 10 65 26 20 82 24 130 7z m6708 -4 c34 -14 35 -17 30 -52
-7 -42 -65 -167 -94 -203 -18 -21 -23 -22 -36 -11 -39 32 -124 221 -110 244
21 35 147 48 210 22z m-11215 -497 c39 -11 40 -13 35 -47 -13 -99 -283 -614
-322 -614 -15 0 -68 103 -162 313 l-83 185 166 6 c188 6 201 11 183 72 -15 52
-11 77 14 87 32 13 123 12 169 -2z m7961 6 c43 -4 77 -11 77 -17 0 -17 -293
-637 -300 -637 -11 0 -229 442 -279 563 l-40 97 233 0 c128 0 267 -3 309 -6z
m-2081 -931 c22 -20 24 -56 3 -73 -25 -21 -45 -4 -45 38 0 54 11 64 42 35z
m-8012 -357 c0 -11 -65 -157 -85 -193 -35 -58 -62 -65 -97 -23 -22 26 -98 194
-98 215 0 3 63 5 140 5 77 0 140 -2 140 -4z"/>
</g>
</svg>
