<?xml version="1.0" encoding="UTF-8"?>
<svg version="1.1" xmlns="http://www.w3.org/2000/svg" width="10667" height="7000">
<path d="M0 0 C0.69642609 0.30168091 1.39285217 0.60336182 2.11038208 0.91418457 C4.42733835 1.91961002 6.74102727 2.93232775 9.0546875 3.9453125 C10.70527888 4.66386089 12.35599784 5.38211627 14.00683594 6.10009766 C29.13834202 12.69034087 44.23183113 19.36752526 59.32226562 26.05114746 C70.10150734 30.82501862 80.89340231 35.56937144 91.69152832 40.300354 C105.10453773 46.17727845 118.49594736 52.0954822 131.84790039 58.11010742 C141.24465988 62.33488 150.6762247 66.47713904 160.11462402 70.60784912 C174.67082974 76.97842919 189.19747698 83.40816613 203.6796875 89.9453125 C217.80659497 96.32169038 231.95143553 102.65566549 246.1171875 108.9453125 C247.05215057 109.36051147 247.98711365 109.77571045 248.95040894 110.20349121 C255.60957074 113.16044573 262.26952914 116.11560342 268.9296875 119.0703125 C276.53440767 122.44406647 284.13877145 125.81862031 291.7421875 129.1953125 C292.67492493 129.60952454 293.60766235 130.02373657 294.56866455 130.45050049 C308.72326838 136.73812967 322.85575751 143.07360723 336.97515869 149.43984985 C348.84033881 154.78938294 360.72038732 160.10397105 372.6171875 165.3828125 C386.13699701 171.38193111 399.64128006 177.41428421 413.13526917 183.47132874 C420.57616765 186.81049854 428.02171097 190.13928744 435.46688843 193.46890259 C451.13147793 200.47440066 466.79240368 207.48799746 482.44970703 214.50976562 C488.44274581 217.19725713 494.43624501 219.88372149 500.4296875 222.5703125 C502.84635626 223.65364116 505.26302293 224.73697449 507.6796875 225.8203125 C509.4740625 226.6246875 509.4740625 226.6246875 511.3046875 227.4453125 C516.7421875 229.8828125 516.7421875 229.8828125 522.1796875 232.3203125 C523.37505127 232.85615967 524.57041504 233.39200684 525.80200195 233.9440918 C528.22763719 235.03145678 530.65325558 236.11885935 533.07885742 237.20629883 C538.98316996 239.8532506 544.88773765 242.49962931 550.79296875 245.14453125 C565.71545991 251.82926711 580.62938574 258.53282501 595.53945923 265.24520874 C606.16567257 270.02890506 616.79439296 274.80683246 627.4296875 279.5703125 C653.50064536 291.24995354 679.54693996 302.98404912 705.57162476 314.76641846 C720.00445345 321.30039825 734.44779151 327.8106756 748.89941406 334.30297852 C757.35052286 338.1009637 765.7945922 341.91360049 774.2265625 345.75390625 C792.72348429 354.17273536 811.26926278 362.4567894 829.9296875 370.5078125 C830.86856812 370.91313202 831.80744873 371.31845154 832.77478027 371.73605347 C835.45049829 372.88998563 838.12728276 374.04139371 840.8046875 375.19140625 C841.5820929 375.52599854 842.35949829 375.86059082 843.16046143 376.20532227 C847.18993954 377.93061013 851.23266373 379.6221765 855.29077148 381.27905273 C856.09771957 381.6090477 856.90466766 381.93904266 857.73606873 382.27903748 C865.42695112 385.05326754 872.24798845 381.35132096 879.3671875 378.4453125 C880.61321991 377.94487561 881.85939876 377.44480322 883.10571289 376.94506836 C897.04361107 371.32125965 910.78847596 365.24944569 924.51928711 359.14172363 C928.03811966 357.57761985 931.55890271 356.01792466 935.07949829 354.45779419 C938.94777463 352.74315095 942.81518236 351.02655326 946.68255615 349.30987549 C948.63334308 348.44433322 950.58439155 347.57938017 952.53570557 346.71502686 C962.04664471 342.50202951 971.54645859 338.27545957 980.96875 333.8671875 C982.94864655 332.94881548 984.92905692 332.03156013 986.90957642 331.11453247 C988.68102858 330.28640344 990.44266473 329.43737631 992.20385742 328.58764648 C993.25420166 328.10110596 994.3045459 327.61456543 995.38671875 327.11328125 C996.7166687 326.47942505 996.7166687 326.47942505 998.07348633 325.83276367 C1004.57362741 324.09757771 1010.25856247 326.28906352 1016.1015625 329.10546875 C1017.10188759 329.57029411 1017.10188759 329.57029411 1018.12242126 330.04450989 C1019.56012615 330.71389946 1020.99553193 331.38824539 1022.42880249 332.06707764 C1025.53056618 333.53568118 1028.64378691 334.9792144 1031.75663757 336.4241333 C1033.38438345 337.17976975 1035.01158527 337.93657921 1036.63825989 338.69451904 C1044.91919508 342.54803118 1053.26270155 346.25470157 1061.6171875 349.9453125 C1064.62157099 351.27496576 1067.62537651 352.60591945 1070.62890625 353.9375 C1071.38366241 354.27206711 1072.13841858 354.60663422 1072.91604614 354.95133972 C1081.93698458 358.9545295 1090.93276065 363.01352663 1099.9296875 367.0703125 C1112.58027353 372.7736337 1125.24412786 378.44520759 1137.9296875 384.0703125 C1154.97332816 391.62849262 1171.9752949 399.27790466 1188.97357178 406.93745422 C1208.91649088 415.92265452 1228.88861409 424.84293195 1248.85595703 433.77368164 C1259.53277362 438.54928721 1270.20680269 443.33105725 1280.87890625 448.1171875 C1290.8931817 452.60749525 1300.91118466 457.0894464 1310.9296875 461.5703125 C1323.24871485 467.08010902 1335.56544672 472.5949565 1347.87890625 478.1171875 C1357.8931817 482.60749525 1367.91118466 487.0894464 1377.9296875 491.5703125 C1390.24871485 497.08010902 1402.56544672 502.5949565 1414.87890625 508.1171875 C1424.8931817 512.60749525 1434.91118466 517.0894464 1444.9296875 521.5703125 C1457.24871485 527.08010902 1469.56544672 532.5949565 1481.87890625 538.1171875 C1491.8931817 542.60749525 1501.91118466 547.0894464 1511.9296875 551.5703125 C1524.24871485 557.08010902 1536.56544672 562.5949565 1548.87890625 568.1171875 C1558.8931817 572.60749525 1568.91118466 577.0894464 1578.9296875 581.5703125 C1591.24871485 587.08010902 1603.56544672 592.5949565 1615.87890625 598.1171875 C1625.8931817 602.60749525 1635.91118466 607.0894464 1645.9296875 611.5703125 C1657.09845287 616.56564393 1668.26590012 621.56386361 1679.4296875 626.5703125 C1682.92572837 628.13765055 1686.42183032 629.70485223 1689.91796875 631.27197266 C1692.8738101 632.59691787 1695.82950054 633.92219932 1698.78515625 635.24755859 C1703.13782878 637.19921654 1707.4910152 639.14972481 1711.84448242 641.09960938 C1713.55444054 641.86569128 1715.26424134 642.63212443 1716.97387695 643.39892578 C1719.36498029 644.47131081 1721.75664386 645.54243691 1724.1484375 646.61328125 C1724.86169189 646.93350754 1725.57494629 647.25373383 1726.30981445 647.58366394 C1728.17977228 648.42003929 1730.05452813 649.24566508 1731.9296875 650.0703125 C1733.19135742 650.7032019 1733.19135742 650.7032019 1734.47851562 651.34887695 C1740.8489858 653.22385099 1746.74260344 650.10041985 1752.43359375 647.46484375 C1753.23393539 647.10315598 1754.03427704 646.7414682 1754.85887146 646.36882019 C1757.40721036 645.21518771 1759.94979223 644.04947682 1762.4921875 642.8828125 C1764.17213714 642.11828549 1765.85247284 641.35460619 1767.53320312 640.59179688 C1768.35605804 640.21820038 1769.17891296 639.84460388 1770.02670288 639.45968628 C1773.24323717 638.00102214 1776.46132395 636.54580565 1779.67999268 635.09185791 C1781.82107155 634.11963302 1783.95524934 633.13340491 1786.08935547 632.14599609 C1787.33656248 631.58222937 1788.58409886 631.01919049 1789.83203125 630.45703125 C1791.43099243 629.72359497 1791.43099243 629.72359497 1793.06225586 628.9753418 C1798.56707627 627.23789018 1802.947177 629.77821474 1808 632 C1808.69642609 632.30168091 1809.39285217 632.60336182 1810.11038208 632.91418457 C1812.42733835 633.91961002 1814.74102727 634.93232775 1817.0546875 635.9453125 C1818.70527888 636.66386089 1820.35599784 637.38211627 1822.00683594 638.10009766 C1837.13834202 644.69034087 1852.23183113 651.36752526 1867.32226562 658.05114746 C1878.10150734 662.82501862 1888.89340231 667.56937144 1899.69152832 672.300354 C1913.10453773 678.17727845 1926.49594736 684.0954822 1939.84790039 690.11010742 C1949.24465988 694.33488 1958.6762247 698.47713904 1968.11462402 702.60784912 C1982.67082974 708.97842919 1997.19747698 715.40816613 2011.6796875 721.9453125 C2025.80659321 728.32168958 2039.9513179 734.65593262 2054.1171875 740.9453125 C2055.04483917 741.35718811 2055.97249084 741.76906372 2056.92825317 742.19342041 C2061.65374753 744.29128125 2066.3795483 746.38845082 2071.10546875 748.48535156 C2080.14024034 752.49456963 2089.17209313 756.51035686 2098.20425415 760.52545166 C2101.01462306 761.77472042 2103.8250464 763.02386661 2106.63549805 764.27294922 C2107.51494583 764.66437103 2108.39439362 765.05579285 2109.30049133 765.45907593 C2111.02153248 766.22283592 2112.74423155 766.98287238 2114.46867371 767.73892212 C2118.66322256 769.58323701 2122.80709872 771.48572396 2126.90869141 773.52929688 C2127.71051346 773.91724426 2128.51233551 774.30519165 2129.3384552 774.70489502 C2130.83719101 775.4325722 2132.32525159 776.18289209 2133.79862976 776.96063232 C2137.79369008 778.86967233 2140.20828035 779.34671052 2144.48291016 777.97875977 C2145.97752916 777.37221894 2147.4607663 776.73668196 2148.9296875 776.0703125 C2149.87569069 775.67146347 2149.87569069 775.67146347 2150.84080505 775.26455688 C2152.69194973 774.46789558 2154.51582556 773.62635833 2156.33984375 772.76953125 C2157.01765396 772.45605743 2157.69546417 772.14258362 2158.39381409 771.8196106 C2159.84377379 771.14903035 2161.29290988 770.47666675 2162.74127197 769.80264282 C2165.03090698 768.73983969 2167.3249062 767.68708618 2169.62060547 766.63745117 C2176.69586831 763.40235145 2183.76368711 760.1545861 2190.80192566 756.83958435 C2193.68937965 755.48668114 2196.58754336 754.15800777 2199.48873901 752.83486938 C2200.8547942 752.20534631 2202.21606523 751.56532518 2203.572052 750.91439819 C2215.37262339 745.25852474 2215.37262339 745.25852474 2220.55859375 746.8515625 C2222.03666798 747.54813994 2223.49294401 748.29205052 2224.9296875 749.0703125 C2226.84091295 749.93179891 2228.75381711 750.78956631 2230.66796875 751.64453125 C2232.86116708 752.67849891 2235.05245943 753.7165157 2237.2421875 754.7578125 C2239.74526681 755.93685786 2242.25102995 757.11010086 2244.7578125 758.28125 C2245.41459488 758.58817276 2246.07137726 758.89509552 2246.74806213 759.21131897 C2254.61548898 762.87451058 2262.55410098 766.3761556 2270.4921875 769.8828125 C2282.51036434 775.19573922 2294.48911872 780.5851934 2306.4296875 786.0703125 C2318.81996472 791.76022054 2331.25079893 797.34955474 2343.71826172 802.86816406 C2356.15087221 808.37267863 2368.54688579 813.95471164 2380.9296875 819.5703125 C2397.52688574 827.09472247 2414.15840697 834.53722319 2430.81993103 841.91796875 C2436.79432998 844.56507341 2442.76486049 847.22080722 2448.734375 849.87890625 C2480.16703746 863.87316033 2511.615058 877.8324063 2543.2421875 891.3828125 C2543.95949036 891.69014313 2544.67679321 891.99747375 2545.41583252 892.31411743 C2548.7215834 893.72935274 2552.02938523 895.13917827 2555.34228516 896.53759766 C2557.69219023 897.54159276 2560.03115245 898.57169169 2562.35693359 899.63037109 C2563.40574707 900.09910645 2564.45456055 900.5678418 2565.53515625 901.05078125 C2566.4377417 901.46610107 2567.34032715 901.8814209 2568.27026367 902.30932617 C2574.15615788 903.99355754 2579.26928381 901.27390112 2584.60546875 898.88671875 C2585.35024979 898.56015289 2586.09503082 898.23358704 2586.86238098 897.89712524 C2589.32519431 896.81543154 2591.78363347 895.72414831 2594.2421875 894.6328125 C2595.99109284 893.86239922 2597.74028467 893.09263602 2599.48974609 892.32348633 C2603.14620646 890.71483032 2606.80099701 889.1024625 2610.45458984 887.48730469 C2615.64572093 885.1936104 2620.84322902 882.91472416 2626.04296875 880.640625 C2649.48234065 870.38506672 2672.86708346 860.00796888 2696.24023438 849.60253906 C2704.6992846 845.83704002 2713.16103691 842.07762143 2721.62258911 838.31774902 C2724.42939495 837.0704425 2727.23607985 835.82286425 2730.04272461 834.57519531 C2738.52591889 830.8041697 2747.00958021 827.03421021 2755.49537659 823.26904297 C2775.34795727 814.46031357 2795.18679863 805.62335416 2814.98623657 796.69573975 C2827.35333664 791.11967048 2839.73960801 785.58873704 2852.1411438 780.08972168 C2864.08913191 774.79063742 2876.01414363 769.44192394 2887.9296875 764.0703125 C2901.31475223 758.03623067 2914.71668746 752.04230146 2928.13867188 746.09082031 C2940.08748379 740.79136931 2952.01332155 735.44229454 2963.9296875 730.0703125 C2977.31173776 724.03758961 2990.71062518 718.04494188 3004.12960815 712.09484863 C3016.26900853 706.71092422 3028.38518342 701.27667078 3040.4921875 695.8203125 C3052.55397129 690.38454347 3064.62338884 684.96816375 3076.71777344 679.60522461 C3086.23465061 675.38388992 3095.73945859 671.1358723 3105.2421875 666.8828125 C3106.04196014 666.52489624 3106.84173279 666.16697998 3107.66574097 665.79821777 C3113.42060028 663.22271944 3119.17517792 660.64659213 3124.9296875 658.0703125 C3127.41523616 656.95753855 3129.90079158 655.84477975 3132.38638306 654.73210144 C3134.03143219 653.9956509 3135.6764316 653.25908929 3137.32138062 652.52241516 C3141.34015998 650.72298751 3145.36000854 648.92603175 3149.38232422 647.13452148 C3155.97545006 644.19617702 3162.56476045 641.25421098 3169.11039734 638.2111969 C3171.01568776 637.32615542 3172.92390805 636.4477903 3174.83325195 635.5715332 C3177.11178636 634.52301385 3179.38431759 633.46129991 3181.64916992 632.38354492 C3182.64795166 631.9269751 3183.6467334 631.47040527 3184.67578125 631 C3185.95473267 630.40034424 3185.95473267 630.40034424 3187.25952148 629.78857422 C3193.4218362 628.13094142 3198.80394199 630.61765595 3204.3203125 633.24609375 C3205.01330948 633.56695953 3205.70630646 633.88782532 3206.42030334 634.21841431 C3207.90475317 634.90690238 3209.3872997 635.59950666 3210.86807251 636.29586792 C3214.01879137 637.77736757 3217.17880229 639.23853769 3220.33833313 640.7011261 C3221.93930852 641.44250974 3223.53980297 642.18493283 3225.13981628 642.9283905 C3231.80988067 646.02608714 3238.51421432 649.03769801 3245.2421875 652.0078125 C3247.41936262 652.97114676 3249.59644314 653.93469484 3251.7734375 654.8984375 C3252.9078125 655.40052734 3254.0421875 655.90261719 3255.2109375 656.41992188 C3262.56348442 659.67945179 3269.90153852 662.97160464 3277.2421875 666.2578125 C3278.86165057 666.98267288 3280.48111673 667.70752637 3282.10058594 668.43237305 C3284.56096308 669.53364046 3287.0213199 670.63495319 3289.48162842 671.7363739 C3295.25027946 674.31884315 3301.01949417 676.90004954 3306.7890625 679.48046875 C3322.16250457 686.35631896 3337.53426173 693.23586077 3352.90087891 700.12695312 C3367.6078398 706.72120069 3382.3216195 713.30020893 3397.03466797 719.88085938 C3404.21123027 723.09073673 3411.38748154 726.30130932 3418.56375122 729.51184082 C3422.51905009 731.28136094 3426.47436987 733.05083431 3430.4296875 734.8203125 C3432.01302093 735.52864561 3433.59635427 736.23697894 3435.1796875 736.9453125 C3435.9634375 737.2959375 3436.7471875 737.6465625 3437.5546875 738.0078125 C3444.67969056 741.19531387 3444.67969056 741.19531387 3447.05455017 742.25775146 C3448.63834087 742.96628914 3450.22213197 743.67482592 3451.80592346 744.38336182 C3455.75726239 746.1510614 3459.70859444 747.91877635 3463.65991211 749.68652344 C3470.86837996 752.91144138 3478.07690402 756.13623344 3485.28567505 759.36047363 C3501.49355028 766.60971989 3517.70012762 773.86179697 3533.90087891 781.12695312 C3548.6078398 787.72120069 3563.3216195 794.30020893 3578.03466797 800.88085938 C3586.78776112 804.79587527 3595.54041895 808.71186433 3604.29315186 812.62768555 C3606.66027551 813.68669247 3609.02740218 814.74569266 3611.39453125 815.8046875 C3612.17646851 816.15450684 3612.95840576 816.50432617 3613.76403809 816.86474609 C3618.60448752 819.03020377 3623.44504377 821.19542249 3628.28567505 823.36047363 C3644.49355028 830.60971989 3660.70012762 837.86179697 3676.90087891 845.12695312 C3691.6078398 851.72120069 3706.3216195 858.30020893 3721.03466797 864.88085938 C3728.21123027 868.09073673 3735.38748154 871.30130932 3742.56375122 874.51184082 C3746.51905009 876.28136094 3750.47436987 878.05083431 3754.4296875 879.8203125 C3756.01302093 880.52864561 3757.59635427 881.23697894 3759.1796875 881.9453125 C3759.9634375 882.2959375 3760.7471875 882.6465625 3761.5546875 883.0078125 C3768.67969059 886.19531388 3768.67969059 886.19531388 3771.05455017 887.25775146 C3772.63834087 887.96628914 3774.22213197 888.67482592 3775.80592346 889.38336182 C3779.75726239 891.1510614 3783.70859444 892.91877635 3787.65991211 894.68652344 C3794.86837996 897.91144138 3802.07690402 901.13623344 3809.28567505 904.36047363 C3825.48696519 911.6067746 3841.68707289 918.85565051 3857.88110352 926.11816406 C3864.63556915 929.14682013 3871.39135846 932.17249239 3878.1484375 935.1953125 C3879.34690308 935.73159019 3879.34690308 935.73159019 3880.56958008 936.27870178 C3884.64045203 938.10004868 3888.71206746 939.91969961 3892.78515625 941.73608398 C3899.70112666 944.82212454 3906.61345417 947.91362547 3913.49316406 951.0798645 C3916.17677507 952.314875 3918.86372633 953.54252399 3921.55078125 954.77001953 C3923.37873938 955.60941714 3925.20118191 956.46079358 3927.0234375 957.3125 C3928.1165625 957.81136719 3929.2096875 958.31023438 3930.3359375 958.82421875 C3931.74842773 959.47886108 3931.74842773 959.47886108 3933.18945312 960.14672852 C3939.16153428 962.15959229 3943.42404373 960.77695141 3948.90625 958.1328125 C3949.57596329 957.82151398 3950.24567657 957.51021545 3950.9356842 957.18948364 C3952.38540223 956.51424467 3953.8327455 955.8338885 3955.27792358 955.14898682 C3958.40162556 953.66905424 3961.53698046 952.2146259 3964.67198181 950.75881958 C3966.31077405 949.99771068 3967.94900176 949.23538515 3969.58668518 948.47189331 C3977.88424338 944.60839824 3986.24490649 940.89333861 3994.6171875 937.1953125 C3997.62158677 935.86569481 4000.62538408 934.53472273 4003.62890625 933.203125 C4004.7610556 932.70126678 4004.7610556 932.70126678 4005.91607666 932.18927002 C4014.93700719 928.18609046 4023.93277103 924.12709369 4032.9296875 920.0703125 C4046.31461351 914.03592547 4059.71668949 908.04230057 4073.13867188 902.09082031 C4085.08748379 896.79136931 4097.01332155 891.44229454 4108.9296875 886.0703125 C4122.31475223 880.03623067 4135.71668746 874.04230146 4149.13867188 868.09082031 C4161.08748379 862.79136931 4173.01332155 857.44229454 4184.9296875 852.0703125 C4197.5804048 846.36727968 4210.24413123 840.69543037 4222.9296875 835.0703125 C4235.57248088 829.46368298 4248.19540071 823.81439948 4260.8046875 818.1328125 C4273.88058746 812.2411002 4286.96181238 806.36171646 4300.0546875 800.5078125 C4300.8347113 800.1590506 4301.61473511 799.8102887 4302.418396 799.45095825 C4306.3494484 797.69343606 4310.28064783 795.93624306 4314.21191406 794.17919922 C4321.32633908 790.99928078 4328.43945039 787.81642575 4335.55267334 784.63381958 C4339.51162542 782.86253288 4343.47066062 781.091432 4347.4296875 779.3203125 C4349.01302123 778.61198006 4350.59635457 777.90364673 4352.1796875 777.1953125 C4355.34635417 775.77864583 4358.51302083 774.36197917 4361.6796875 772.9453125 C4362.85524452 772.41940521 4362.85524452 772.41940521 4364.05455017 771.88287354 C4365.63834087 771.17433586 4367.22213197 770.46579908 4368.80592346 769.75726318 C4372.75726239 767.9895636 4376.70859444 766.22184865 4380.65991211 764.45410156 C4387.86837996 761.22918362 4395.07690402 758.00439156 4402.28567505 754.78015137 C4417.33597382 748.04865076 4432.3860037 741.31658679 4447.4296875 734.5703125 C4463.29333291 727.45633001 4479.16404342 720.35816081 4495.03466797 713.25976562 C4499.8448335 711.10831194 4504.65486275 708.95655371 4509.46484375 706.8046875 C4510.24678101 706.45486816 4511.02871826 706.10504883 4511.83435059 705.74462891 C4514.19946529 704.68652881 4516.564577 703.628422 4518.9296875 702.5703125 C4527.71488606 698.63996672 4536.50009527 694.70964494 4545.28567505 690.78015137 C4560.33597382 684.04865076 4575.3860037 677.31658679 4590.4296875 670.5703125 C4598.22919061 667.0726594 4606.02965939 663.57718574 4613.83203125 660.0859375 C4614.99358482 659.56610291 4614.99358482 659.56610291 4616.17860413 659.0357666 C4620.16975809 657.24985574 4624.16156129 655.46541905 4628.15454102 653.68359375 C4635.74320758 650.29572157 4643.32609544 646.89650042 4650.89024353 643.4541626 C4654.37484144 641.86912424 4657.86236677 640.29058725 4661.35012817 638.71252441 C4663.01312428 637.95787634 4664.67467711 637.20003874 4666.33468628 636.43884277 C4668.64270331 635.38078025 4670.9554818 634.33385142 4673.26953125 633.2890625 C4674.28110291 632.82001495 4674.28110291 632.82001495 4675.31311035 632.3414917 C4680.07196417 630.21133094 4684.72950585 628.16809557 4689.95671082 629.64178467 C4692.2845081 630.5596412 4694.5255146 631.58897026 4696.78125 632.671875 C4698.04607712 633.25340332 4698.04607712 633.25340332 4699.3364563 633.84667969 C4702.08347702 635.11381472 4704.81871817 636.40451297 4707.5546875 637.6953125 C4709.46692827 638.58174088 4711.38002257 639.46633021 4713.29394531 640.34912109 C4717.10402668 642.10826283 4720.91041285 643.87501494 4724.71386719 645.6484375 C4731.33915101 648.73238896 4738.0038456 651.7225749 4744.6796875 654.6953125 C4746.96626963 655.71847337 4749.25272565 656.74191614 4751.5390625 657.765625 C4753.34349057 658.57250327 4755.14792012 659.37937823 4756.95239258 660.18615723 C4760.67944444 661.85272326 4764.40609383 663.52018905 4768.1328125 665.1875 C4773.04060594 667.38316347 4777.9484387 669.57873885 4782.85644531 671.77392578 C4793.53311434 676.54941605 4804.20696856 681.33113164 4814.87890625 686.1171875 C4824.89318173 690.60749526 4834.91119518 695.08942282 4844.9296875 699.5703125 C4862.08089165 707.24152183 4879.22666523 714.92476178 4896.37011719 722.61328125 C4911.22006087 729.27290016 4926.07315834 735.9253989 4940.9296875 742.5703125 C4958.18840298 750.28965744 4975.44235751 758.01955236 4992.69238281 765.75830078 C4993.3246579 766.04193481 4993.95693298 766.32556885 4994.60836792 766.61779785 C4995.88716097 767.19150831 4997.16590876 767.76531966 4998.4446106 768.3392334 C5001.55496281 769.73494707 5004.66622986 771.12853475 5007.77978516 772.51708984 C5013.05268992 774.87102623 5018.31529468 777.23791118 5023.5390625 779.69921875 C5024.36768799 780.08424561 5025.19631348 780.46927246 5026.05004883 780.8659668 C5027.53246194 781.55648923 5029.00951395 782.25871673 5030.47924805 782.97583008 C5034.82052491 784.98121358 5037.35875409 785.48486107 5041.9296875 784.0703125 C5045.67563386 782.59045234 5049.33027487 780.93342922 5052.9921875 779.2578125 C5054.77929471 778.45164937 5056.56642317 777.64553281 5058.35401917 776.8404541 C5059.6747577 776.24522088 5060.99508628 775.64907739 5062.31504822 775.05212402 C5067.96992848 772.49562924 5073.63903526 769.97198088 5079.3125 767.45703125 C5080.22389236 767.05298569 5081.13528473 766.64894012 5082.07429504 766.23265076 C5083.96090371 765.39633197 5085.84752602 764.56004397 5087.73416138 763.7237854 C5103.52890077 756.7196358 5119.3026546 749.66995924 5135.0546875 742.5703125 C5149.01535319 736.27820986 5162.99108391 730.02241568 5176.99072266 723.81738281 C5184.46687412 720.50254705 5191.93883848 717.17827149 5199.4118042 713.85626221 C5204.27833034 711.69298522 5209.14503422 709.53010815 5214.01171875 707.3671875 C5215.99951256 706.48372585 5217.98730553 705.6002623 5219.97509766 704.71679688 C5231.77880828 699.47070326 5231.77880828 699.47070326 5234.67927551 698.18161011 C5236.60089956 697.32755272 5238.52252025 696.4734878 5240.44413757 695.61941528 C5245.16767645 693.52002553 5249.8912714 691.42076214 5254.61499023 689.32177734 C5262.65707288 685.74813589 5270.69888202 682.17389405 5278.73823547 678.59411621 C5282.01351225 677.13573958 5285.2890818 675.6780212 5288.56466675 674.22033691 C5290.06525124 673.55231438 5291.56568596 672.88395528 5293.06594849 672.21520996 C5296.42239246 670.71908414 5299.78048421 669.22713781 5303.14404297 667.74707031 C5305.72779372 666.60940199 5308.2965302 665.44364738 5310.85986328 664.26074219 C5312.11349387 663.69441148 5313.36723274 663.12832037 5314.62109375 662.5625 C5315.71752197 662.05831543 5316.8139502 661.55413086 5317.94360352 661.03466797 C5323.53037951 659.23041932 5327.85941417 661.7396244 5333 664 C5333.69642609 664.30168091 5334.39285217 664.60336182 5335.11038208 664.91418457 C5337.42733835 665.91961002 5339.74102727 666.93232775 5342.0546875 667.9453125 C5343.70527888 668.66386089 5345.35599784 669.38211627 5347.00683594 670.10009766 C5362.13834202 676.69034087 5377.23183113 683.36752526 5392.32226562 690.05114746 C5403.10150734 694.82501862 5413.89340231 699.56937144 5424.69152832 704.300354 C5438.10453773 710.17727845 5451.49594736 716.0954822 5464.84790039 722.11010742 C5474.24465988 726.33488 5483.6762247 730.47713904 5493.11462402 734.60784912 C5507.67082974 740.97842919 5522.19747698 747.40816613 5536.6796875 753.9453125 C5550.80659497 760.32169038 5564.95143553 766.65566549 5579.1171875 772.9453125 C5580.05215057 773.36051147 5580.98711365 773.77571045 5581.95040894 774.20349121 C5588.60957074 777.16044573 5595.26952914 780.11560342 5601.9296875 783.0703125 C5609.53440767 786.44406647 5617.13877145 789.81862031 5624.7421875 793.1953125 C5625.67492493 793.60952454 5626.60766235 794.02373657 5627.56866455 794.45050049 C5641.72326838 800.73812967 5655.85575751 807.07360723 5669.97515869 813.43984985 C5681.84033881 818.78938294 5693.72038732 824.10397105 5705.6171875 829.3828125 C5719.13699701 835.38193111 5732.64128006 841.41428421 5746.13526917 847.47132874 C5753.57616765 850.81049854 5761.02171097 854.13928744 5768.46688843 857.46890259 C5784.13147793 864.47440066 5799.79240368 871.48799746 5815.44970703 878.50976562 C5821.44274581 881.19725713 5827.43624501 883.88372149 5833.4296875 886.5703125 C5835.84635626 887.65364116 5838.26302293 888.73697449 5840.6796875 889.8203125 C5841.8759375 890.3565625 5843.0721875 890.8928125 5844.3046875 891.4453125 C5847.9296875 893.0703125 5851.5546875 894.6953125 5855.1796875 896.3203125 C5856.37505127 896.85615967 5857.57041504 897.39200684 5858.80200195 897.9440918 C5861.22763719 899.03145678 5863.65325558 900.11885935 5866.07885742 901.20629883 C5871.98316996 903.8532506 5877.88773765 906.49962931 5883.79296875 909.14453125 C5898.71545991 915.82926711 5913.62938574 922.53282501 5928.53945923 929.24520874 C5939.16567257 934.02890506 5949.79439296 938.80683246 5960.4296875 943.5703125 C5986.50064536 955.24995354 6012.54693996 966.98404912 6038.57162476 978.76641846 C6053.00445345 985.30039825 6067.44779151 991.8106756 6081.89941406 998.30297852 C6090.35052286 1002.1009637 6098.7945922 1005.91360049 6107.2265625 1009.75390625 C6125.72348429 1018.17273536 6144.26926278 1026.4567894 6162.9296875 1034.5078125 C6163.86856812 1034.91313202 6164.80744873 1035.31845154 6165.77478027 1035.73605347 C6168.45049829 1036.88998563 6171.12728276 1038.04139371 6173.8046875 1039.19140625 C6174.5820929 1039.52599854 6175.35949829 1039.86059082 6176.16046143 1040.20532227 C6180.18993954 1041.93061013 6184.23266373 1043.6221765 6188.29077148 1045.27905273 C6189.50119362 1045.77404518 6189.50119362 1045.77404518 6190.73606873 1046.27903748 C6198.42695112 1049.05326754 6205.24798845 1045.35132096 6212.3671875 1042.4453125 C6213.61321991 1041.94487561 6214.85939876 1041.44480322 6216.10571289 1040.94506836 C6230.04361107 1035.32125965 6243.78847596 1029.24944569 6257.51928711 1023.14172363 C6261.03811966 1021.57761985 6264.55890271 1020.01792466 6268.07949829 1018.45779419 C6271.94777463 1016.74315095 6275.81518236 1015.02655326 6279.68255615 1013.30987549 C6281.63334308 1012.44433322 6283.58439155 1011.57938017 6285.53570557 1010.71502686 C6295.04664471 1006.50202951 6304.54645859 1002.27545957 6313.96875 997.8671875 C6315.94864655 996.94881548 6317.92905692 996.03156013 6319.90957642 995.11453247 C6321.68102858 994.28640344 6323.44266473 993.43737631 6325.20385742 992.58764648 C6326.77937378 991.85783569 6326.77937378 991.85783569 6328.38671875 991.11328125 C6329.27335205 990.69071045 6330.15998535 990.26813965 6331.07348633 989.83276367 C6337.57362741 988.09757771 6343.25856247 990.28906352 6349.1015625 993.10546875 C6349.76844589 993.41535233 6350.43532928 993.7252359 6351.12242126 994.04450989 C6352.56012615 994.71389946 6353.99553193 995.38824539 6355.42880249 996.06707764 C6358.53056618 997.53568118 6361.64378691 998.9792144 6364.75663757 1000.4241333 C6366.38438345 1001.17976975 6368.01158527 1001.93657921 6369.63825989 1002.69451904 C6377.91919508 1006.54803118 6386.26270155 1010.25470157 6394.6171875 1013.9453125 C6397.62157099 1015.27496576 6400.62537651 1016.60591945 6403.62890625 1017.9375 C6404.38366241 1018.27206711 6405.13841858 1018.60663422 6405.91604614 1018.95133972 C6414.93698458 1022.9545295 6423.93276065 1027.01352663 6432.9296875 1031.0703125 C6445.58027353 1036.7736337 6458.24412786 1042.44520759 6470.9296875 1048.0703125 C6487.97332816 1055.62849262 6504.9752949 1063.27790466 6521.97357178 1070.93745422 C6541.91649088 1079.92265452 6561.88861409 1088.84293195 6581.85595703 1097.77368164 C6592.53277362 1102.54928721 6603.20680269 1107.33105725 6613.87890625 1112.1171875 C6623.8931817 1116.60749525 6633.91118466 1121.0894464 6643.9296875 1125.5703125 C6656.24871485 1131.08010902 6668.56544672 1136.5949565 6680.87890625 1142.1171875 C6690.8931817 1146.60749525 6700.91118466 1151.0894464 6710.9296875 1155.5703125 C6723.24871485 1161.08010902 6735.56544672 1166.5949565 6747.87890625 1172.1171875 C6757.8931817 1176.60749525 6767.91118466 1181.0894464 6777.9296875 1185.5703125 C6790.24871485 1191.08010902 6802.56544672 1196.5949565 6814.87890625 1202.1171875 C6824.8931817 1206.60749525 6834.91118466 1211.0894464 6844.9296875 1215.5703125 C6857.24871485 1221.08010902 6869.56544672 1226.5949565 6881.87890625 1232.1171875 C6891.8931817 1236.60749525 6901.91118466 1241.0894464 6911.9296875 1245.5703125 C6924.24871485 1251.08010902 6936.56544672 1256.5949565 6948.87890625 1262.1171875 C6958.8931817 1266.60749525 6968.91118466 1271.0894464 6978.9296875 1275.5703125 C6991.24871485 1281.08010902 7003.56544672 1286.5949565 7015.87890625 1292.1171875 C7025.8931817 1296.60749525 7035.91118466 1301.0894464 7045.9296875 1305.5703125 C7058.24871485 1311.08010902 7070.56544672 1316.5949565 7082.87890625 1322.1171875 C7092.8931817 1326.60749525 7102.91118466 1331.0894464 7112.9296875 1335.5703125 C7125.24871485 1341.08010902 7137.56544672 1346.5949565 7149.87890625 1352.1171875 C7159.89318173 1356.60749526 7169.91119518 1361.08942282 7179.9296875 1365.5703125 C7197.08089165 1373.24152183 7214.22666523 1380.92476178 7231.37011719 1388.61328125 C7247.04129885 1395.64119327 7262.71630874 1402.66047192 7278.39450073 1409.67272949 C7289.89188027 1414.81514865 7301.38668152 1419.96325659 7312.87890625 1425.1171875 C7324.52335672 1430.33845053 7336.17257134 1435.54905197 7347.82250977 1440.75805664 C7355.84672904 1444.34630119 7363.8708307 1447.93474874 7371.88473511 1451.54598999 C7374.88702234 1452.89803132 7377.89337225 1454.23933379 7380.90722656 1455.56542969 C7386.44210167 1458.00529941 7391.87472575 1460.52620824 7397.23046875 1463.33984375 C7398.23730713 1463.84330322 7399.24414551 1464.3467627 7400.28149414 1464.86547852 C7402.12565868 1465.79121152 7403.94799679 1466.76283693 7405.73608398 1467.79272461 C7410.24841203 1469.99493641 7412.86215173 1470.36339478 7417.7722168 1469.01538086 C7421.50914242 1467.59144796 7425.10857633 1465.90688119 7428.70098877 1464.15386963 C7430.84503747 1463.11146797 7433.00442855 1462.11851877 7435.17919922 1461.14208984 C7438.78664617 1459.51959912 7442.37689248 1457.86288115 7445.96279907 1456.19338989 C7449.9890686 1454.32000562 7454.02165974 1452.46034375 7458.0546875 1450.6015625 C7459.29192314 1450.03128075 7459.29192314 1450.03128075 7460.55415344 1449.44947815 C7470.37028229 1444.93431285 7480.24840909 1440.56066321 7490.13085938 1436.19311523 C7498.382801 1432.54431411 7506.61861913 1428.8629326 7514.8359375 1425.13671875 C7515.74800461 1424.72372025 7516.66007172 1424.31072174 7517.59977722 1423.88520813 C7522.98590158 1421.44641004 7522.98590158 1421.44641004 7528.36758423 1418.99783325 C7530.83040681 1417.8745504 7533.29580889 1416.75711047 7535.76171875 1415.640625 C7536.48617187 1415.30805191 7537.210625 1414.97547882 7537.95703125 1414.63282776 C7549.18441084 1409.56861521 7549.18441084 1409.56861521 7554.3659668 1411.05810547 C7555.58891911 1411.62103357 7556.80126078 1412.20740143 7558.00390625 1412.8125 C7558.67243118 1413.12671906 7559.34095612 1413.44093811 7560.02973938 1413.76467896 C7562.23516809 1414.80586658 7564.42538349 1415.87578215 7566.6171875 1416.9453125 C7568.1765294 1417.68613542 7569.73710214 1418.42437251 7571.29882812 1419.16015625 C7573.7308158 1420.30605102 7576.16205197 1421.45326661 7578.58981323 1422.60809326 C7586.23252106 1426.24045289 7593.95333945 1429.68161737 7601.69863892 1433.08843994 C7614.32396794 1438.64477977 7626.89469325 1444.313382 7639.4296875 1450.0703125 C7651.8200934 1455.75994534 7664.25079467 1461.34955285 7676.71826172 1466.86816406 C7689.15087221 1472.37267863 7701.54688579 1477.95471164 7713.9296875 1483.5703125 C7730.52688574 1491.09472247 7747.15840697 1498.53722319 7763.81993103 1505.91796875 C7769.79432998 1508.56507341 7775.76486049 1511.22080722 7781.734375 1513.87890625 C7813.16703746 1527.87316033 7844.615058 1541.8324063 7876.2421875 1555.3828125 C7876.95949036 1555.69014313 7877.67679321 1555.99747375 7878.41583252 1556.31411743 C7881.7215834 1557.72935274 7885.02938523 1559.13917827 7888.34228516 1560.53759766 C7890.69219023 1561.54159276 7893.03115245 1562.57169169 7895.35693359 1563.63037109 C7896.40574707 1564.09910645 7897.45456055 1564.5678418 7898.53515625 1565.05078125 C7899.4377417 1565.46610107 7900.34032715 1565.8814209 7901.27026367 1566.30932617 C7907.15615788 1567.99355754 7912.26928381 1565.27390112 7917.60546875 1562.88671875 C7918.35024979 1562.56015289 7919.09503082 1562.23358704 7919.86238098 1561.89712524 C7922.32519431 1560.81543154 7924.78363347 1559.72414831 7927.2421875 1558.6328125 C7928.99109284 1557.86239922 7930.74028467 1557.09263602 7932.48974609 1556.32348633 C7936.14620646 1554.71483032 7939.80099701 1553.1024625 7943.45458984 1551.48730469 C7948.64572098 1549.19361038 7953.84323416 1546.914736 7959.04296875 1544.640625 C7979.32336327 1535.76674538 7999.56603521 1526.80961141 8019.78369141 1517.79370117 C8048.33058538 1505.0703125 8048.33058538 1505.0703125 8049.9296875 1505.0703125 C8049.9296875 2405.6403125 8049.9296875 3306.2103125 8049.9296875 4234.0703125 C4529.8196875 4234.0703125 1009.7096875 4234.0703125 -2617.0703125 4234.0703125 C-2617.0703125 3050.0303125 -2617.0703125 1865.9903125 -2617.0703125 646.0703125 C-2599.2503125 638.1503125 -2599.2503125 638.1503125 -2581.0703125 630.0703125 C-2572.90516519 626.25159287 -2572.90516519 626.25159287 -2564.765625 622.37890625 C-2559.06240285 620.35926627 -2554.9554141 621.90775391 -2549.59765625 624.3359375 C-2548.54852051 624.80700928 -2547.49938477 625.27808105 -2546.41845703 625.76342773 C-2545.29294434 626.27719971 -2544.16743164 626.79097168 -2543.0078125 627.3203125 C-2541.19196745 628.13853933 -2539.37611951 628.95675982 -2537.56011963 629.77464294 C-2535.66220094 630.63074348 -2533.76575996 631.49004581 -2531.86962891 632.35009766 C-2527.0156177 634.5503781 -2522.15020165 636.72506988 -2517.28540039 638.90136719 C-2513.65271825 640.52687201 -2510.02140538 642.15540983 -2506.390625 643.78515625 C-2499.1182278 647.04919658 -2491.84437409 650.30998294 -2484.5703125 653.5703125 C-2482.15363955 654.65363181 -2479.73697288 655.73696515 -2477.3203125 656.8203125 C-2475.5259375 657.6246875 -2475.5259375 657.6246875 -2473.6953125 658.4453125 C-2375.8203125 702.3203125 -2375.8203125 702.3203125 -2372.19921875 703.94360352 C-2369.76957304 705.03272686 -2367.33989302 706.12177324 -2364.91015625 707.21069336 C-2359.06670624 709.8296411 -2353.22390714 712.45002109 -2347.3828125 715.07421875 C-2327.92103033 723.81426157 -2308.42546698 732.47777533 -2288.92727661 741.13623047 C-2282.17966159 744.13279402 -2275.4332249 747.13199664 -2268.6875 750.1328125 C-2259.32090358 754.29943166 -2249.95253354 758.46204274 -2240.58300781 762.62207031 C-2236.95680918 764.23216961 -2233.33118098 765.84354254 -2229.70605469 767.45605469 C-2208.51113241 776.88209948 -2187.26613252 786.18221243 -2165.9453125 795.3203125 C-2164.91805054 795.76083954 -2163.89078857 796.20136658 -2162.83239746 796.65524292 C-2158.00927437 798.72215006 -2153.18335403 800.78191161 -2148.35058594 802.82617188 C-2144.91432707 804.2797628 -2141.49241016 805.76094163 -2138.07910156 807.26757812 C-2136.55804888 807.92602657 -2135.03689626 808.58424422 -2133.515625 809.2421875 C-2132.84280487 809.54707092 -2132.16998474 809.85195435 -2131.47677612 810.16607666 C-2125.85527691 812.56517105 -2122.49898593 811.93158913 -2116.88696289 809.94140625 C-2115.74219482 809.46832031 -2114.59742676 808.99523438 -2113.41796875 808.5078125 C-2112.4592688 808.11388054 -2112.4592688 808.11388054 -2111.48120117 807.71199036 C-2109.36211997 806.83837937 -2107.24735488 805.95484796 -2105.1328125 805.0703125 C-2103.61713744 804.44092393 -2102.10143033 803.81161252 -2100.58569336 803.18237305 C-2082.64666464 795.71113213 -2064.85341855 787.90362842 -2047.0703125 780.0703125 C-2045.25342831 779.27064707 -2043.43653361 778.47100554 -2041.61962891 777.67138672 C-2020.06505019 768.18206888 -1998.53688583 758.63564617 -1977.06213379 748.96691895 C-1974.12155803 747.64323635 -1971.18051378 746.32059583 -1968.23951721 744.99784851 C-1959.77649236 741.19143738 -1951.31438802 737.38298359 -1942.85267639 733.57365417 C-1932.7637878 729.03182538 -1922.67408206 724.49181278 -1912.58441162 719.95172119 C-1910.09402947 718.83110728 -1907.60365308 717.71048059 -1905.11328125 716.58984375 C-1904.29049683 716.21960083 -1903.4677124 715.84935791 -1902.61999512 715.46789551 C-1897.50914453 713.16800027 -1892.39849896 710.86765007 -1887.28799438 708.56698608 C-1870.58459558 701.04741309 -1853.88002674 693.53065441 -1837.16186523 686.04394531 C-1829.36094642 682.549221 -1821.56479436 679.04405702 -1813.77151489 675.53233337 C-1809.44556542 673.58318226 -1805.11872517 671.63607102 -1800.78955078 669.6940918 C-1790.22768603 664.95557565 -1790.22768603 664.95557565 -1779.7038269 660.13346863 C-1777.79054235 659.24834825 -1775.87459629 658.36930359 -1773.95751953 657.49243164 C-1771.68714647 656.45193605 -1769.42205365 655.3998057 -1767.16357422 654.33374023 C-1766.17115723 653.88200439 -1765.17874023 653.43026855 -1764.15625 652.96484375 C-1763.3111084 652.57143799 -1762.4659668 652.17803223 -1761.59521484 651.77270508 C-1755.51833836 650.08220289 -1750.11993664 653.17574981 -1744.703125 655.69140625 C-1743.88834183 656.06272675 -1743.07355865 656.43404724 -1742.23408508 656.81661987 C-1740.47329131 657.62009159 -1738.71398528 658.42683003 -1736.95602417 659.23648071 C-1734.15341392 660.52710716 -1731.34695731 661.80900197 -1728.53930664 663.08862305 C-1724.63995584 664.86643109 -1720.74200832 666.6472577 -1716.84521484 668.43066406 C-1662.43687743 699.2061364 -1662.43687743 699.2061364 -1605.56542969 707.78930664 C-1604.22555535 707.2351312 -1602.88881063 706.67335001 -1601.5546875 706.10546875 C-1600.81808395 705.79680878 -1600.08148041 705.4881488 -1599.32255554 705.1701355 C-1589.78377043 701.14700146 -1580.33444821 696.9179014 -1570.8828125 692.6953125 C-1568.89135846 691.80775776 -1566.89982048 690.92039133 -1564.90820312 690.03320312 C-1551.09242195 683.87625639 -1537.28601215 677.69827081 -1523.48193359 671.51513672 C-1510.02650398 665.48967529 -1496.55380995 659.50331921 -1483.07958984 653.52001953 C-1470.78602533 648.06057714 -1458.50106818 642.58314474 -1446.23144531 637.07006836 C-1436.22336669 632.57746818 -1426.19725491 628.12591968 -1416.17034912 623.67553711 C-1400.41045713 616.68053486 -1384.66471629 609.65586828 -1368.9453125 602.5703125 C-1354.3625967 595.99769495 -1339.76151247 589.46892557 -1325.13818359 582.98706055 C-1302.61427308 573.00154886 -1280.09567245 563.0050612 -1257.6328125 552.8828125 C-1256.81296875 552.51337524 -1255.993125 552.14393799 -1255.1484375 551.76330566 C-1253.4986563 551.01984865 -1251.84887602 550.2763896 -1250.19909668 549.53292847 C-1249.38831665 549.16756989 -1248.57753662 548.8022113 -1247.7421875 548.42578125 C-1246.93624146 548.06259796 -1246.13029541 547.69941467 -1245.29992676 547.32522583 C-1236.66654662 543.43594909 -1228.02615195 539.56239957 -1219.3828125 535.6953125 C-1218.61258759 535.3506897 -1217.84236267 535.00606689 -1217.04879761 534.65100098 C-1202.98726192 528.36123416 -1188.90845619 522.11052848 -1174.82922363 515.86050415 C-1159.76577719 509.17211431 -1144.72614337 502.4323673 -1129.70043945 495.65966797 C-1118.26937465 490.50742037 -1106.82960574 485.37502075 -1095.3828125 480.2578125 C-1094.58747101 479.90224274 -1093.79212952 479.54667297 -1092.97268677 479.18032837 C-1089.85103846 477.7847703 -1086.72938321 476.38922778 -1083.60768127 474.99378967 C-1076.59292671 471.85775091 -1069.58127396 468.71482259 -1062.5703125 465.5703125 C-1050.5845596 460.19499182 -1038.59422082 454.82996673 -1026.60302734 449.46679688 C-1016.25672956 444.83921741 -1005.91197287 440.20824852 -995.5703125 435.5703125 C-983.58453842 430.19503896 -971.59422088 424.82996675 -959.60302734 419.46679688 C-949.25672956 414.83921741 -938.91197287 410.20824852 -928.5703125 405.5703125 C-917.40659514 400.56370766 -906.23906594 395.56567013 -895.0703125 390.5703125 C-880.22693705 383.9313244 -865.38704469 377.28463803 -850.55029297 370.63085938 C-844.55725419 367.94336787 -838.56375499 365.25690351 -832.5703125 362.5703125 C-830.15364374 361.48698384 -827.73697707 360.40365051 -825.3203125 359.3203125 C-810.8203125 352.8203125 -796.3203125 346.3203125 -781.8203125 339.8203125 C-780.6247876 339.28438477 -779.4292627 338.74845703 -778.19750977 338.19628906 C-775.77352725 337.10968184 -773.34953633 336.02309339 -770.92553711 334.93652344 C-764.99573475 332.27843217 -759.06606439 329.62004741 -753.13671875 326.9609375 C-738.63276164 320.45692086 -724.12478748 313.96194495 -709.61456299 307.47192383 C-694.42934026 300.67985981 -679.24873791 293.8775541 -664.0703125 287.0703125 C-647.25243916 279.52780899 -630.43102472 271.9933116 -613.60549927 264.46789551 C-603.25837715 259.83995061 -592.91279562 255.2086175 -582.5703125 250.5703125 C-570.58453842 245.19503896 -558.59422088 239.82996675 -546.60302734 234.46679688 C-536.25672953 229.8392174 -525.91198278 225.20822645 -515.5703125 220.5703125 C-499.70668214 213.45629655 -483.83595654 206.35816079 -467.96533203 199.25976562 C-460.78876973 196.04988827 -453.61251846 192.83931568 -446.43624878 189.62878418 C-442.48094991 187.85926406 -438.52563013 186.08979069 -434.5703125 184.3203125 C-432.98697907 183.61197939 -431.40364573 182.90364606 -429.8203125 182.1953125 C-420.32031243 177.94531247 -420.32031243 177.94531247 -417.94520569 176.88276672 C-416.3622264 176.17459044 -414.7792491 175.4664097 -413.1962738 174.75822449 C-409.23253999 172.98495168 -405.26877129 171.21175693 -401.30493164 169.4387207 C-394.24433761 166.28040887 -387.18395797 163.12162396 -380.12493896 159.95979309 C-376.25274137 158.22540218 -372.38033596 156.49147569 -368.5078125 154.7578125 C-367.73467712 154.41168915 -366.96154175 154.0655658 -366.16497803 153.70895386 C-352.06328903 147.39724748 -337.94389848 141.12571767 -323.82272339 134.85775757 C-309.73620334 128.60375163 -295.6715763 122.30289867 -281.62213135 115.96609497 C-267.34581779 109.52824142 -253.03987167 103.15871011 -238.72467041 96.80786133 C-225.11352798 90.76835422 -211.52073221 84.68968674 -197.9453125 78.5703125 C-183.98472703 72.27803349 -170.00891472 66.02241507 -156.00927734 59.81738281 C-148.53312588 56.50254705 -141.06116152 53.17827149 -133.5881958 49.85626221 C-128.72166966 47.69298522 -123.85496578 45.53010815 -118.98828125 43.3671875 C-117.00048744 42.48372585 -115.01269447 41.6002623 -113.02490234 40.71679688 C-101.22119122 35.47070304 -101.22119122 35.47070304 -98.32072449 34.18161011 C-96.39910044 33.32755272 -94.47747975 32.4734878 -92.55586243 31.61941528 C-87.83232355 29.52002553 -83.1087286 27.42076214 -78.38500977 25.32177734 C-70.34292712 21.74813589 -62.30111798 18.17389405 -54.26176453 14.59411621 C-50.98648775 13.13573958 -47.7109182 11.6780212 -44.43533325 10.22033691 C-42.93474876 9.55231438 -41.43431404 8.88395528 -39.93405151 8.21520996 C-36.57760754 6.71908414 -33.21951579 5.22713781 -29.85595703 3.74707031 C-27.27220628 2.60940199 -24.7034698 1.44364738 -22.14013672 0.26074219 C-20.88650613 -0.30558852 -19.63276726 -0.87167963 -18.37890625 -1.4375 C-17.28247803 -1.94168457 -16.1860498 -2.44586914 -15.05639648 -2.96533203 C-9.46962049 -4.76958068 -5.14058583 -2.2603756 0 0 Z " fill="#1C1C1C" transform="translate(2617.0703125,2765.9296875)"/>
</svg>
