<?xml version="1.0" encoding="UTF-8"?>
<svg version="1.1" xmlns="http://www.w3.org/2000/svg" width="10667" height="7000">
<path d="M0 0 C0.99136963 0.44480713 1.98273926 0.88961426 3.00415039 1.34790039 C4.08817139 1.84281982 5.17219238 2.33773926 6.2890625 2.84765625 C8.09097621 3.65959213 9.89289321 4.47152075 11.69490051 5.2832489 C13.68135141 6.1795319 15.66624825 7.07918642 17.65087891 7.97949219 C22.13341095 10.01167056 26.62295883 12.02807493 31.11328125 14.04296875 C62.25651757 28.02285127 93.3724413 42.0649105 124.40713501 56.28424072 C135.22691566 61.24060044 146.07334089 66.13264908 156.94042969 70.98461914 C167.05444928 75.5073792 177.12578157 80.12033252 187.19543457 84.74078369 C198.31508773 89.83990671 209.4749639 94.84049545 220.6640625 99.78515625 C234.1309616 105.73668821 247.5152023 111.85175582 260.87014771 118.05007935 C273.48400177 123.90171844 286.15500112 129.6086648 298.87451172 135.2265625 C309.73897378 140.02697459 320.53234494 144.95264603 331.2890625 149.9909668 C340.50778461 154.2935189 349.79490989 158.42721224 359.1015625 162.53515625 C372.27411718 168.35024657 385.36321547 174.32703178 398.4140625 180.41015625 C411.96683665 186.72674962 425.56684741 192.91250389 439.24755859 198.94677734 C451.85858 204.51234856 464.38163973 210.25378573 476.8848877 216.0569458 C488.47194155 221.43204338 500.10240286 226.69291692 511.7890625 231.84765625 C525.61262778 237.94529963 539.33318541 244.24550735 553.02728271 250.62814331 C564.93793372 256.17664812 576.89090635 261.61001297 588.9140625 266.91015625 C601.96162779 272.6622618 614.92452675 278.57960046 627.8515625 284.59765625 C640.60944723 290.53684433 653.38822094 296.41079381 666.24365234 302.13623047 C675.51677721 306.26993883 684.74934686 310.48769978 693.9765625 314.72265625 C705.79233122 320.14511221 717.64667433 325.47054022 729.5390625 330.72265625 C743.44417183 336.86431274 757.24830992 343.20610728 771.02618408 349.62759399 C782.93719723 355.17628654 794.89048447 360.60995585 806.9140625 365.91015625 C820.69243696 371.98390115 834.36700013 378.26093587 848.01473999 384.62237549 C860.94181497 390.64469693 873.9263194 396.51764133 886.97265625 402.27664185 C896.99970132 406.70408778 906.97989886 411.21553352 916.9140625 415.84765625 C918.04602051 416.37149902 919.17797852 416.8953418 920.34423828 417.43505859 C925.51951535 419.83440107 930.66602051 422.27159648 935.76953125 424.8203125 C936.67638672 425.26060791 937.58324219 425.70090332 938.51757812 426.15454102 C940.17021296 426.95759288 941.81230206 427.78296795 943.43945312 428.63647461 C946.40355702 430.05453184 948.70517054 431.1449616 952.00971985 430.50311279 C953.07672371 430.11436981 953.07672371 430.11436981 954.1652832 429.71777344 C954.95240189 429.43111816 955.73952057 429.14446289 956.55049133 428.84912109 C960.14814774 427.41989699 963.66252012 425.85650362 967.1640625 424.20703125 C967.92692566 423.85266998 968.68978882 423.49830872 969.47576904 423.13320923 C971.10863646 422.37415445 972.74051134 421.61296138 974.37145996 420.84979248 C977.85154345 419.22152642 981.33658663 417.60401034 984.82147217 415.98605347 C986.60527026 415.15787169 988.38883888 414.32919548 990.17218018 413.50003052 C998.31548682 409.71589393 1006.48493925 405.99109904 1014.6640625 402.28515625 C1017.3595046 401.06278562 1020.05476755 399.84002031 1022.75 398.6171875 C1023.41685822 398.31469589 1024.08371643 398.01220428 1024.77078247 397.70054626 C1031.8823545 394.47334703 1038.98547319 391.22770692 1046.0874939 387.97955322 C1048.28844188 386.97294009 1050.48954783 385.96667302 1052.69067383 384.96044922 C1059.28241357 381.94656585 1065.87293759 378.93008211 1072.45985413 375.90567017 C1088.80903775 368.39959761 1105.19302389 360.98461956 1121.64572144 353.70800781 C1132.56052634 348.87834727 1143.40772084 343.92825086 1154.21557617 338.86279297 C1165.6831075 333.50823252 1177.25424377 328.39098982 1188.8359375 323.2890625 C1189.57882019 322.96104141 1190.32170288 322.63302032 1191.08709717 322.2950592 C1192.46852639 321.6852628 1193.85066659 321.07707302 1195.23370361 320.47093201 C1198.57548757 318.99525215 1201.80290831 317.43060907 1205.01855469 315.69555664 C1208.51861885 313.95262957 1210.95477192 313.31257672 1214.9140625 313.91015625 C1217.49230913 314.87093998 1219.86337062 315.87475938 1222.328125 317.06640625 C1223.04236633 317.39994614 1223.75660767 317.73348602 1224.49249268 318.07713318 C1226.03651398 318.79949755 1227.57815107 319.52697559 1229.11761475 320.25900269 C1233.28391224 322.23965587 1237.4676899 324.18289929 1241.6484375 326.1328125 C1242.5070639 326.53464249 1243.36569031 326.93647247 1244.25033569 327.35047913 C1251.98516268 330.96405169 1259.77716198 334.43909463 1267.590271 337.87939453 C1281.75967764 344.11904663 1295.83818854 350.53794406 1309.8817749 357.0553894 C1321.51211287 362.45018126 1333.18511088 367.73341765 1344.9140625 372.91015625 C1358.30369621 378.81986037 1371.60882263 384.89518261 1384.88433838 391.05667114 C1396.47157703 396.4318648 1408.1022606 401.69272681 1419.7890625 406.84765625 C1433.76650685 413.01373719 1447.64316831 419.37988406 1461.49291992 425.82727051 C1473.36553139 431.35348977 1485.26557875 436.80090318 1497.22827148 442.12963867 C1506.65103567 446.33061272 1516.03581201 450.61091361 1525.4140625 454.91015625 C1537.22984415 460.3258697 1549.06855994 465.68414468 1560.93725586 470.9831543 C1571.05229124 475.50649786 1581.12472188 480.11984629 1591.19543457 484.74078369 C1602.31508954 489.83990755 1613.4750105 494.84038729 1624.6640625 499.78515625 C1637.44980296 505.43619827 1650.16861279 511.21961084 1662.8515625 517.09765625 C1675.08406761 522.76664717 1687.33570457 528.37966756 1699.64770508 533.87451172 C1700.81197021 534.39416504 1701.97623535 534.91381836 1703.17578125 535.44921875 C1703.77298477 535.71576263 1704.37018829 535.98230652 1704.98548889 536.25692749 C1713.84955622 540.21688356 1722.69370093 544.22114062 1731.5390625 548.22265625 C1732.4350415 548.62791534 1733.33102051 549.03317444 1734.25415039 549.45071411 C1746.59190821 555.0326029 1758.91505468 560.64563358 1771.2265625 566.28515625 C1784.46631247 572.34957227 1797.73871056 578.33608861 1811.03366089 584.27874756 C1819.39554913 588.0176967 1827.74858162 591.77636004 1836.1015625 595.53515625 C1836.9430484 595.91380829 1837.7845343 596.29246033 1838.65151978 596.68258667 C1860.57697819 606.55020312 1882.47953839 616.46841987 1904.38232422 626.38623047 C1931.61573089 638.72034919 1931.61573089 638.72034919 1958.88720703 650.9699707 C1966.00784765 654.15514691 1973.12129607 657.35572828 1980.23046875 660.56640625 C1982.95583079 661.79630421 1985.68125134 663.02607243 1988.40667725 664.25582886 C1990.18049853 665.05676623 1991.95398598 665.85844341 1993.72711182 666.66091919 C1998.46415418 668.80467824 2003.20713113 670.93363046 2007.96185303 673.03790283 C2009.68109563 673.80606591 2011.38957769 674.59821681 2013.09619141 675.39404297 C2013.96034668 675.77963379 2014.82450195 676.16522461 2015.71484375 676.5625 C2016.40360596 676.88081787 2017.09236816 677.19913574 2017.80200195 677.52709961 C2022.95692125 678.46202833 2028.29785349 674.91603826 2032.890625 672.77734375 C2033.56038361 672.46887512 2034.23014221 672.16040649 2034.92019653 671.84259033 C2036.3682232 671.17560868 2037.8156633 670.50735241 2039.26257324 669.83795166 C2043.20275347 668.01575828 2047.14792907 666.2044716 2051.09375 664.39453125 C2051.90976685 664.02018951 2052.72578369 663.64584778 2053.56652832 663.26016235 C2061.90011996 659.44523979 2070.27984377 655.73709525 2078.6640625 652.03515625 C2092.13586143 646.08284353 2105.52388803 639.96437627 2118.88323975 633.76419067 C2130.47084048 628.38880836 2142.10183914 623.12764422 2153.7890625 617.97265625 C2166.7330662 612.26299186 2179.59105359 606.3864541 2192.4140625 600.41015625 C2205.96690699 594.09371087 2219.56684432 587.90780997 2233.24755859 581.87353516 C2245.85417996 576.30990579 2258.37297434 570.57068739 2270.87179565 564.76940918 C2283.48510399 558.91805725 2296.1555647 553.21139878 2308.87451172 547.59375 C2319.72937271 542.7975801 2330.51352254 537.87691536 2341.26049805 532.8425293 C2350.75852712 528.40929817 2360.32743762 524.14756674 2369.9140625 519.91015625 C2380.77312756 515.1099891 2391.5958002 510.25058842 2402.3515625 505.22265625 C2412.55156046 500.45452393 2422.79445221 495.79595177 2433.07592773 491.20629883 C2444.03882679 486.31135261 2454.97754449 481.36372839 2465.9140625 476.41015625 C2478.91380456 470.52357578 2491.91989076 464.65225801 2504.94555664 458.82324219 C2514.2308891 454.66747782 2523.50808195 450.49384197 2532.78372192 446.3164978 C2567.14244055 430.84419223 2601.55022074 415.48309524 2635.99560547 400.20471191 C2637.96734717 399.33009585 2639.93902525 398.45533634 2641.91064453 397.58044434 C2647.86389855 394.93874188 2653.81806981 392.29912622 2659.77359009 389.66253662 C2661.63515835 388.8381327 2663.49647305 388.01315594 2665.35751343 387.18756104 C2669.5061689 385.34750903 2673.65764751 383.51572173 2677.82177734 381.7109375 C2680.2466594 380.65797653 2682.60826374 379.56598638 2684.97900391 378.390625 C2689.22526454 376.36757629 2691.96854014 375.52600943 2696.58203125 376.7578125 C2698.37531778 377.43442594 2700.15149796 378.15712998 2701.9140625 378.91015625 C2703.0170166 379.35472168 2704.1199707 379.79928711 2705.25634766 380.25732422 C2709.2726192 381.89420104 2713.2490504 383.61918815 2717.2265625 385.34765625 C2718.75359546 386.00690896 2720.28069706 386.66600269 2721.80786133 387.32495117 C2753.08130638 400.85069367 2784.1368689 414.8802942 2815.19807434 428.88453674 C2822.2653928 432.0702114 2829.33890715 435.24192193 2836.4140625 438.41015625 C2861.25233939 449.53943119 2886.0874648 460.67308988 2910.82421875 472.02661133 C2921.69162904 477.01201123 2932.60217495 481.89182375 2943.5390625 486.72265625 C2957.44408439 492.86451621 2971.24830525 499.2061051 2985.02618408 505.62759399 C2997.65701391 511.51160994 3010.34217715 517.25078452 3023.09265137 522.87033081 C3037.40135645 529.18152185 3051.59323691 535.73413074 3065.76171875 542.35351562 C3069.71688318 544.20085346 3073.67827384 546.03420919 3077.64379883 547.85919189 C3079.16665273 548.56416074 3080.68666156 549.27530589 3082.20385742 549.99237061 C3084.37707092 551.01939455 3086.55835241 552.02705337 3088.7421875 553.03125 C3089.38105896 553.33917984 3090.01993042 553.64710968 3090.67816162 553.96437073 C3094.8802558 555.86537994 3097.49335412 556.19685042 3101.9140625 554.91015625 C3104.29549809 553.95810695 3106.57881083 552.97076928 3108.890625 551.875 C3109.89512695 551.41024261 3109.89512695 551.41024261 3110.91992188 550.93609619 C3112.36872441 550.26504263 3113.81604624 549.59078481 3115.26202393 548.91366577 C3119.2015755 547.06934063 3123.15222528 545.24903252 3127.1015625 543.42578125 C3127.91799225 543.04814133 3128.734422 542.6705014 3129.57559204 542.28141785 C3137.12835943 538.79445431 3144.72898402 535.42102421 3152.34124756 532.06643677 C3166.97955877 525.61397781 3181.51359264 518.95690845 3196.01309204 512.19876099 C3208.94602576 506.17367898 3221.93637075 500.29793245 3234.98876953 494.53662109 C3244.67855274 490.25842668 3254.32148665 485.90325051 3263.9140625 481.41015625 C3274.2533307 476.56731661 3284.65710171 471.89532726 3295.1015625 467.28515625 C3308.27411532 461.47006674 3321.36325225 455.493357 3334.4140625 449.41015625 C3347.19484865 443.45303169 3360.01118698 437.59810442 3372.9140625 431.91015625 C3385.96163032 426.15804958 3398.92448087 420.24061821 3411.8515625 414.22265625 C3426.09446589 407.5926161 3440.36465889 401.04042151 3454.7265625 394.671875 C3458.66445577 392.92513114 3462.57967924 391.14104439 3466.4765625 389.3046875 C3467.31195557 388.91627686 3468.14734863 388.52786621 3469.00805664 388.12768555 C3470.50014542 387.43208212 3471.9870176 386.72509407 3473.46655273 386.00317383 C3477.84022018 383.98307897 3480.27836322 383.81406998 3484.9140625 384.91015625 C3487.37526245 385.86321218 3489.74781852 386.85338652 3492.14453125 387.9453125 C3492.83971863 388.25546799 3493.53490601 388.56562347 3494.25115967 388.88517761 C3496.53771895 389.9075914 3498.81958184 390.94006866 3501.1015625 391.97265625 C3502.7120848 392.69486282 3504.32284731 393.41653393 3505.93383789 394.13769531 C3513.99350572 397.75274723 3522.03161596 401.41387305 3530.0546875 405.109375 C3531.15523468 405.61621826 3531.15523468 405.61621826 3532.27801514 406.13330078 C3533.00643616 406.4687793 3533.73485718 406.80425781 3534.48535156 407.14990234 C3535.94072623 407.82004991 3537.39612972 408.4901349 3538.8515625 409.16015625 C3539.5684021 409.49025696 3540.2852417 409.82035767 3541.02380371 410.16046143 C3551.38514282 414.92415097 3561.81137279 419.49356307 3572.3515625 423.84765625 C3573.56642334 424.35006836 3574.78128418 424.85248047 3576.03295898 425.37011719 C3580.45675386 427.1829198 3580.45675386 427.1829198 3584.9140625 428.91015625 C3585.55617676 429.17143311 3586.19829102 429.43270996 3586.85986328 429.7019043 C3590.1000548 430.03039055 3592.34056717 428.72280041 3595.28515625 427.40234375 C3595.9101149 427.12591034 3596.53507355 426.84947693 3597.17897034 426.56466675 C3599.24156513 425.64908075 3601.29638351 424.71725497 3603.3515625 423.78515625 C3604.80488888 423.13603659 3606.25867203 422.4879387 3607.71289062 421.84082031 C3611.42171462 420.187347 3615.12449159 418.52077639 3618.8258667 416.85070801 C3621.90499251 415.46382791 3624.98956209 414.08938103 3628.07421875 412.71484375 C3634.01284806 410.06527535 3639.94431318 407.40001686 3645.87353516 404.72949219 C3650.29602986 402.73762843 3654.72032148 400.74976942 3659.14453125 398.76171875 C3690.89777125 384.49023794 3722.63331177 370.17951311 3754.28637695 355.68701172 C3764.66975048 350.93313871 3775.06273984 346.20081429 3785.46154785 341.48080444 C3793.14587549 337.99270801 3800.82612196 334.49613 3808.49609375 330.9765625 C3823.1383679 324.25979175 3837.80352388 317.60756092 3852.5390625 311.09765625 C3867.36277521 304.54766255 3882.07825674 297.77917989 3896.77148438 290.94213867 C3908.00523306 285.71553388 3919.25800662 280.53389258 3930.5390625 275.41015625 C3931.22906342 275.09642059 3931.91906433 274.78268494 3932.62997437 274.45944214 C3936.72043976 272.60020707 3940.8108424 270.74110537 3944.9140625 268.91015625 C3946.66082275 268.04680664 3946.66082275 268.04680664 3948.44287109 267.16601562 C3953.96194112 265.16924419 3957.83425086 266.65940842 3963 269 C3964.48705444 269.66721069 3964.48705444 269.66721069 3966.00415039 270.34790039 C3967.63018188 271.09027954 3967.63018188 271.09027954 3969.2890625 271.84765625 C3971.09097621 272.65959213 3972.89289321 273.47152075 3974.69490051 274.2832489 C3976.68135141 275.1795319 3978.66624825 276.07918642 3980.65087891 276.97949219 C3985.13341095 279.01167056 3989.62295883 281.02807493 3994.11328125 283.04296875 C4025.25651757 297.02285127 4056.3724413 311.0649105 4087.40713501 325.28424072 C4098.22691566 330.24060044 4109.07334089 335.13264908 4119.94042969 339.98461914 C4130.05444928 344.5073792 4140.12578157 349.12033252 4150.19543457 353.74078369 C4161.31508773 358.83990671 4172.4749639 363.84049545 4183.6640625 368.78515625 C4197.1309616 374.73668821 4210.5152023 380.85175582 4223.87014771 387.05007935 C4236.48400177 392.90171844 4249.15500112 398.6086648 4261.87451172 404.2265625 C4272.73897378 409.02697459 4283.53234494 413.95264603 4294.2890625 418.9909668 C4303.50778461 423.2935189 4312.79490989 427.42721224 4322.1015625 431.53515625 C4335.27411718 437.35024657 4348.36321547 443.32703178 4361.4140625 449.41015625 C4374.96683665 455.72674962 4388.56684741 461.91250389 4402.24755859 467.94677734 C4414.02770049 473.14565985 4425.73443898 478.48945316 4437.4140625 483.91015625 C4449.90832312 489.70841318 4462.43930168 495.40730153 4475.0390625 500.97265625 C4487.93653501 506.67115558 4500.7862705 512.46654232 4513.6015625 518.34765625 C4514.42199036 518.72326691 4515.24241821 519.09887756 4516.08770752 519.48587036 C4518.38908191 520.54011192 4520.68895836 521.59754286 4522.98828125 522.65625 C4523.67805557 522.97210052 4524.3678299 523.28795105 4525.07850647 523.6133728 C4529.79870746 525.79480121 4529.79870746 525.79480121 4530.9140625 526.91015625 C4530.9140625 1891.46015625 4530.9140625 3256.01015625 4530.9140625 4661.91015625 C1010.8040625 4661.91015625 -2509.3059375 4661.91015625 -6136.0859375 4661.91015625 C-6136.0859375 3255.45015625 -6136.0859375 1848.99015625 -6136.0859375 399.91015625 C-6117.72043117 390.72740309 -6117.72043117 390.72740309 -6111.25 387.859375 C-6110.4996347 387.523116 -6109.74926941 387.18685699 -6108.97616577 386.84040833 C-6107.38094389 386.12598424 -6105.78504023 385.41308063 -6104.18847656 384.70166016 C-6100.71869196 383.15550663 -6097.25241707 381.60154929 -6093.78582764 380.04824829 C-6091.9637769 379.23192105 -6090.14155065 378.41598546 -6088.31915283 377.60043335 C-6078.56161938 373.23264669 -6068.82362623 368.82195926 -6059.0859375 364.41015625 C-6046.12015973 358.53801515 -6033.14597866 352.68505118 -6020.1625061 346.85214233 C-6005.98447914 340.48243383 -5991.82946019 334.06558629 -5977.69952393 327.58990479 C-5967.00714144 322.69051339 -5956.29187594 317.84694339 -5945.55444336 313.046875 C-5934.84465675 308.2568623 -5924.15046913 303.43269311 -5913.4609375 298.59765625 C-5912.56532104 298.19257843 -5911.66970459 297.78750061 -5910.74694824 297.37014771 C-5897.68138551 291.45895506 -5884.63310868 285.51084409 -5871.59588623 279.53744507 C-5860.77509749 274.5806295 -5849.92766931 269.68811447 -5839.05957031 264.83569336 C-5828.94486851 260.31262823 -5818.87274232 255.6995956 -5808.80255127 251.07852173 C-5797.72596696 245.99865882 -5786.6080271 241.02062102 -5775.4609375 236.09765625 C-5761.56022983 229.95794389 -5747.76030324 223.61847478 -5733.98690796 217.19876099 C-5721.05397424 211.17367898 -5708.06362925 205.29793245 -5695.01123047 199.53662109 C-5684.19363178 194.76047809 -5673.44781499 189.85883794 -5662.73901367 184.84228516 C-5652.47104346 180.04973087 -5642.11762901 175.46017735 -5631.75390625 170.87939453 C-5621.81763287 166.48530725 -5611.92477774 162.01923912 -5602.0859375 157.41015625 C-5591.47727857 152.4404457 -5580.80046529 147.64611421 -5570.0859375 142.91015625 C-5559.22687244 138.1099891 -5548.4041998 133.25058842 -5537.6484375 128.22265625 C-5527.44843954 123.45452393 -5517.20554779 118.79595177 -5506.92407227 114.20629883 C-5495.96117321 109.31135261 -5485.02245551 104.36372839 -5474.0859375 99.41015625 C-5461.08619544 93.52357578 -5448.08010924 87.65225801 -5435.05444336 81.82324219 C-5425.7691109 77.66747782 -5416.49191805 73.49384197 -5407.21627808 69.3164978 C-5372.85755945 53.84419223 -5338.44977926 38.48309524 -5304.00439453 23.20471191 C-5302.03265283 22.33009585 -5300.06097475 21.45533634 -5298.08935547 20.58044434 C-5292.13610145 17.93874188 -5286.18193019 15.29912622 -5280.22640991 12.66253662 C-5278.36484165 11.8381327 -5276.50352695 11.01315594 -5274.64248657 10.18756104 C-5270.4938311 8.34750903 -5266.34235249 6.51572173 -5262.17822266 4.7109375 C-5259.7533406 3.65797653 -5257.39173626 2.56598638 -5255.02099609 1.390625 C-5250.77473546 -0.63242371 -5248.03145986 -1.47399057 -5243.41796875 -0.2421875 C-5241.62468222 0.43442594 -5239.84850204 1.15712998 -5238.0859375 1.91015625 C-5236.9829834 2.35472168 -5235.8800293 2.79928711 -5234.74365234 3.25732422 C-5230.7273808 4.89420104 -5226.7509496 6.61918815 -5222.7734375 8.34765625 C-5221.24640454 9.00690896 -5219.71930294 9.66600269 -5218.19213867 10.32495117 C-5186.91869362 23.85069367 -5155.8631311 37.8802942 -5124.80192566 51.88453674 C-5117.7346072 55.0702114 -5110.66109285 58.24192193 -5103.5859375 61.41015625 C-5078.74766061 72.53943119 -5053.9125352 83.67308988 -5029.17578125 95.02661133 C-5018.30837096 100.01201123 -5007.39782505 104.89182375 -4996.4609375 109.72265625 C-4982.55591561 115.86451621 -4968.75169475 122.2061051 -4954.97381592 128.62759399 C-4943.06280277 134.17628654 -4931.10951553 139.60995585 -4919.0859375 144.91015625 C-4905.30316005 150.98584207 -4891.62438584 157.26520415 -4877.97216797 163.62841797 C-4865.34095175 169.51258364 -4852.65589676 175.25320552 -4839.90432739 180.87133789 C-4824.8567159 187.50578973 -4809.9448526 194.42203733 -4795.05970764 201.4125824 C-4792.66172155 202.5271662 -4790.25155811 203.61160922 -4787.83959961 204.69555664 C-4784.5846066 206.17005492 -4781.46818255 207.78522836 -4778.34985352 209.52905273 C-4772.02604634 212.89852825 -4766.40455422 215.86675175 -4759.16625977 213.99267578 C-4753.90437354 212.15624994 -4749.05144649 209.59683545 -4744.1484375 206.97265625 C-4742.48042357 206.13873048 -4740.8091887 205.31121551 -4739.13476562 204.49023438 C-4735.79435043 202.8425096 -4732.46888096 201.1693502 -4729.15283203 199.47314453 C-4723.89823445 196.80105678 -4718.60960391 194.21567651 -4713.26953125 191.71875 C-4712.45186783 191.32011246 -4711.63420441 190.92147491 -4710.79176331 190.51075745 C-4704.72200709 187.71585157 -4700.7826142 187.60277068 -4694.36816406 189.87133789 C-4693.49643555 190.26699951 -4692.62470703 190.66266113 -4691.7265625 191.0703125 C-4690.71215088 191.52567383 -4689.69773926 191.98103516 -4688.65258789 192.45019531 C-4687.01084595 193.20381348 -4687.01084595 193.20381348 -4685.3359375 193.97265625 C-4684.16345459 194.50213867 -4682.99097168 195.03162109 -4681.78295898 195.57714844 C-4677.8780086 197.34188284 -4673.98174257 199.1253451 -4670.0859375 200.91015625 C-4668.71830504 201.53573926 -4667.35062886 202.16122667 -4665.98291016 202.78662109 C-4660.21439197 205.42497818 -4654.44638538 208.06443188 -4648.68115234 210.70996094 C-4639.04532957 215.12720547 -4629.37561068 219.46091431 -4619.67907715 223.74307251 C-4604.09202245 230.62669021 -4588.61110694 237.72016283 -4573.16259766 244.90893555 C-4561.91113145 250.14395965 -4550.63646992 255.32299041 -4539.33209229 260.44268799 C-4531.57159174 263.95755049 -4523.81811744 267.48634831 -4516.08203125 271.0546875 C-4515.32011978 271.40609299 -4514.55820831 271.75749847 -4513.77320862 272.11955261 C-4513.00685593 272.47302261 -4512.24050323 272.82649261 -4511.45092773 273.19067383 C-4496.29432316 280.18119989 -4481.09441774 287.06088611 -4465.83032227 293.81347656 C-4455.29291966 298.47614199 -4444.781882 303.19476021 -4434.28033447 307.93759155 C-4418.90096237 314.8812701 -4403.4833645 321.71479885 -4387.97581482 328.36775208 C-4383.57730311 330.2584939 -4379.19182076 332.17775228 -4374.81013489 334.10714722 C-4371.4233865 335.59771416 -4368.03374627 337.08164067 -4364.64389038 338.56512451 C-4362.99708698 339.28775967 -4361.35156674 340.013327 -4359.70742798 340.74200439 C-4357.41121935 341.75914305 -4355.11050905 342.76538802 -4352.80859375 343.76953125 C-4352.13072815 344.07303497 -4351.45286255 344.3765387 -4350.75445557 344.6892395 C-4345.27620564 347.05881153 -4340.65666278 348.64859661 -4334.79248047 346.96411133 C-4333.07762451 346.20457153 -4333.07762451 346.20457153 -4331.328125 345.4296875 C-4330.68443466 345.15015228 -4330.04074432 344.87061707 -4329.37754822 344.58261108 C-4327.23115602 343.6454716 -4325.09645276 342.68429557 -4322.9609375 341.72265625 C-4321.42079204 341.04390648 -4319.88000246 340.36661672 -4318.33862305 339.69067383 C-4314.13321209 337.84114399 -4309.93766723 335.97012808 -4305.74346924 334.09533691 C-4301.22648219 332.0808941 -4296.7004443 330.08696857 -4292.17578125 328.08984375 C-4269.89472905 318.24273813 -4247.67663908 308.25437709 -4225.47113037 298.23831177 C-4219.65028673 295.61340578 -4213.82590152 292.99647102 -4208 290.3828125 C-4190.97346934 282.74143432 -4173.97716578 275.04175121 -4157.03182983 267.22186279 C-4145.06414234 261.70188352 -4133.04239291 256.31537592 -4120.98690796 250.99026489 C-4108.14593218 245.31404492 -4095.38805122 239.4691582 -4082.65057373 233.56478882 C-4071.09839377 228.21042119 -4059.51780894 222.93339014 -4047.88867188 217.74804688 C-4039.04750206 213.80153929 -4030.23428014 209.79675527 -4021.43084717 205.76687622 C-4019.17673752 204.73560373 -4016.9217338 203.70631028 -4014.66650391 202.67749023 C-4008.14425892 199.69975272 -4001.63191014 196.70663815 -3995.15234375 193.63671875 C-3994.13325928 193.15871826 -3993.1141748 192.68071777 -3992.06420898 192.18823242 C-3990.22632411 191.32472375 -3988.39333822 190.45067032 -3986.56665039 189.5637207 C-3985.77121826 189.19206787 -3984.97578613 188.82041504 -3984.15625 188.4375 C-3983.48352051 188.11515381 -3982.81079102 187.79280762 -3982.11767578 187.46069336 C-3976.86460743 186.03727722 -3971.98603837 189.17798349 -3967.33203125 191.3828125 C-3966.57198288 191.73713348 -3965.81193451 192.09145447 -3965.02885437 192.45651245 C-3963.38598149 193.22269485 -3961.74417693 193.99117127 -3960.10333252 194.76168823 C-3955.68275199 196.83664927 -3951.25360519 198.89313758 -3946.82421875 200.94921875 C-3945.91947815 201.36946823 -3945.01473755 201.78971771 -3944.08258057 202.22270203 C-3935.50276435 206.19870621 -3926.86468923 210.03597851 -3918.2109375 213.84765625 C-3904.38654929 219.94337552 -3890.6667681 226.24552901 -3876.97271729 232.62814331 C-3865.06206912 238.1766468 -3853.10913963 243.61012156 -3841.0859375 248.91015625 C-3827.30316005 254.98584207 -3813.62438584 261.26520415 -3799.97216797 267.62841797 C-3788.0617023 273.17682692 -3776.10895168 278.61020441 -3764.0859375 283.91015625 C-3750.30316005 289.98584207 -3736.62438584 296.26520415 -3722.97216797 302.62841797 C-3711.0617023 308.17682692 -3699.10895168 313.61020441 -3687.0859375 318.91015625 C-3673.30316005 324.98584207 -3659.62438584 331.26520415 -3645.97216797 337.62841797 C-3634.0617023 343.17682692 -3622.10895168 348.61020441 -3610.0859375 353.91015625 C-3596.30316005 359.98584207 -3582.62438584 366.26520415 -3568.97216797 372.62841797 C-3557.0617023 378.17682692 -3545.10895168 383.61020441 -3533.0859375 388.91015625 C-3519.30316005 394.98584207 -3505.62438584 401.26520415 -3491.97216797 407.62841797 C-3480.0617023 413.17682692 -3468.10895168 418.61020441 -3456.0859375 423.91015625 C-3442.30316005 429.98584207 -3428.62438584 436.26520415 -3414.97216797 442.62841797 C-3403.0617023 448.17682692 -3391.10895168 453.61020441 -3379.0859375 458.91015625 C-3365.30316005 464.98584207 -3351.62438584 471.26520415 -3337.97216797 477.62841797 C-3326.0617023 483.17682692 -3314.10895168 488.61020441 -3302.0859375 493.91015625 C-3289.18300592 499.59799084 -3276.36685898 505.45332165 -3263.5859375 511.41015625 C-3253.65708776 516.03715128 -3243.726688 520.65536623 -3233.71875 525.109375 C-3232.96693954 525.44414856 -3232.21512909 525.77892212 -3231.4405365 526.12384033 C-3227.73201547 527.77060304 -3224.01702165 529.40024958 -3220.2902832 531.00537109 C-3212.63583382 534.32025208 -3205.21139945 537.84628347 -3197.87109375 541.8125 C-3182.83969786 550.64208166 -3182.83969786 550.64208166 -3166.22265625 552.3515625 C-3161.27995614 550.56398967 -3156.9851328 547.80910236 -3152.57617188 544.98339844 C-3146.0571861 540.96250801 -3138.86831873 538.0796834 -3131.89852905 534.94033813 C-3127.39373901 532.89932814 -3122.91532316 530.80196617 -3118.43359375 528.7109375 C-3106.18289964 523.01339612 -3093.88704495 517.41754522 -3081.57717896 511.84925842 C-3076.93752015 509.75027183 -3072.30108744 507.64429411 -3067.66615295 505.53489685 C-3043.89412213 494.71772367 -3020.06105456 484.05563057 -2996.05841064 473.75897217 C-2994.23317473 472.97351696 -2992.41111895 472.18068284 -2990.58935547 471.38720703 C-2987.78335099 470.16733955 -2984.96905837 468.9707334 -2982.1484375 467.78515625 C-2981.41061035 467.4600708 -2980.6727832 467.13498535 -2979.91259766 466.80004883 C-2973.60846454 464.22094821 -2968.16614729 464.93027337 -2962.01708984 467.40625 C-2960.56388711 468.04253842 -2959.11567038 468.6903009 -2957.671875 469.34765625 C-2956.47944435 469.87517235 -2956.47944435 469.87517235 -2955.26292419 470.41334534 C-2952.65764988 471.56888555 -2950.05938745 472.73936089 -2947.4609375 473.91015625 C-2945.62369941 474.72870047 -2943.78604599 475.54631305 -2941.94799805 476.36303711 C-2937.23036909 478.46228164 -2932.51840831 480.57393267 -2927.80792236 482.68914795 C-2923.63148731 484.56258301 -2919.45042295 486.42560036 -2915.26953125 488.2890625 C-2908.21705368 491.43461303 -2901.16960348 494.59124797 -2894.12442017 497.75309753 C-2888.64099818 500.21372082 -2883.15524945 502.66908825 -2877.66796875 505.12109375 C-2847.77513223 518.47957284 -2817.91446236 531.90867856 -2788.0859375 545.41015625 C-2760.89951114 557.71754069 -2760.89951114 557.71754069 -2733.68000793 569.95152283 C-2730.18246933 571.51805666 -2726.68697033 573.08853709 -2723.19921875 574.67675781 C-2719.93717251 576.16154509 -2716.66892856 577.6315925 -2713.3984375 579.09765625 C-2712.04552612 579.72232788 -2712.04552612 579.72232788 -2710.6652832 580.35961914 C-2709.85148193 580.72047607 -2709.03768066 581.08133301 -2708.19921875 581.453125 C-2707.51641846 581.7627417 -2706.83361816 582.0723584 -2706.13012695 582.39135742 C-2704.04533821 583.09831116 -2704.04533821 583.09831116 -2701.81567383 582.29638672 C-2697.77357791 581.72447045 -2694.84701552 583.46190783 -2691.296875 585.1875 C-2690.53372986 585.54483215 -2689.77058472 585.90216431 -2688.98431396 586.27032471 C-2686.47053736 587.45050597 -2683.96604752 588.64920371 -2681.4609375 589.84765625 C-2679.70107002 590.67704945 -2677.94048011 591.50491135 -2676.17919922 592.33129883 C-2672.56563359 594.0276798 -2668.95481208 595.7297064 -2665.34570312 597.43554688 C-2658.377145 600.72231455 -2651.37139704 603.92630449 -2644.35943604 607.11917114 C-2642.19712491 608.10394688 -2640.03569986 609.09064331 -2637.87451172 610.07788086 C-2627.43596008 614.8452809 -2616.98883609 619.5938022 -2606.5402832 624.3392334 C-2595.92390993 629.16099988 -2585.3149218 633.99870688 -2574.7109375 638.84765625 C-2573.98518524 639.17942871 -2573.25943298 639.51120117 -2572.51168823 639.85302734 C-2565.18558194 643.20210451 -2557.86054013 646.5534556 -2550.54000854 649.91470337 C-2534.39033683 657.32919297 -2518.20843845 664.65882883 -2501.95568848 671.8447876 C-2491.32551367 676.54707061 -2480.74419854 681.34470559 -2470.19396973 686.22360229 C-2452.25625008 694.51878413 -2434.19395375 702.50430975 -2416.08132935 710.40913391 C-2408.65926249 713.65168196 -2401.25477594 716.93315851 -2393.85266113 720.22094727 C-2385.01187655 724.14705985 -2376.16183569 728.05177288 -2367.30303955 731.93707275 C-2365.26216162 732.83281169 -2363.22255367 733.73138333 -2361.18310547 734.63037109 C-2358.07518074 735.99292406 -2354.95898283 737.3327185 -2351.8359375 738.66015625 C-2351.01005127 739.0250415 -2350.18416504 739.38992676 -2349.33325195 739.76586914 C-2348.21309692 740.23174438 -2348.21309692 740.23174438 -2347.0703125 740.70703125 C-2346.45897461 740.96838867 -2345.84763672 741.22974609 -2345.21777344 741.49902344 C-2338.79728168 742.73724013 -2333.02327929 739.84225327 -2327.33203125 737.25390625 C-2326.49117981 736.87998749 -2325.65032837 736.50606873 -2324.78399658 736.12081909 C-2322.02668018 734.89223908 -2319.27512229 733.65129177 -2316.5234375 732.41015625 C-2314.58669639 731.54429687 -2312.64959811 730.67923603 -2310.7121582 729.81494141 C-2305.77262293 727.60915846 -2300.83759343 725.39348178 -2295.90356445 723.17541504 C-2291.64963793 721.26518419 -2287.39136501 719.36473384 -2283.1328125 717.46484375 C-2276.10993321 714.33034443 -2269.09059132 711.18803382 -2262.07307434 708.04154968 C-2256.60889867 705.59184694 -2251.14288997 703.14627446 -2245.67578125 700.703125 C-2225.31235883 691.60232974 -2204.96511944 682.4660757 -2184.62817383 673.30627441 C-2178.80253352 670.68256232 -2172.97577815 668.06133942 -2167.1484375 665.44140625 C-2163.83589075 663.95192687 -2160.52339312 662.46233828 -2157.2109375 660.97265625 C-2156.39067078 660.60377289 -2155.57040405 660.23488953 -2154.72528076 659.85482788 C-2145.31154211 655.62064193 -2135.90194673 651.37749924 -2126.5 647.1171875 C-2125.6200386 646.71847946 -2124.74007721 646.31977142 -2123.83345032 645.90898132 C-2118.50491797 643.49456105 -2118.50491797 643.49456105 -2113.17648315 641.07992554 C-2100.33095514 635.26033834 -2087.45583305 629.51145515 -2074.55944824 623.80560303 C-2062.40805333 618.42561406 -2050.32424919 612.9077198 -2038.25979614 607.33584595 C-2026.95276403 602.11581091 -2015.60317609 597.00383673 -2004.2109375 591.97265625 C-1990.62655455 585.9725965 -1977.12379211 579.81020578 -1963.65057373 573.56478882 C-1952.09333518 568.20807656 -1940.50785829 562.92832449 -1928.87329102 557.74145508 C-1919.41775621 553.52128528 -1909.99863763 549.2248417 -1900.5859375 544.91015625 C-1888.77010967 539.49454179 -1876.93144145 534.13616844 -1865.06274414 528.8371582 C-1854.94702655 524.31350956 -1844.873802 519.70008188 -1834.80255127 515.07852173 C-1823.72596696 509.99865882 -1812.6080271 505.02062102 -1801.4609375 500.09765625 C-1787.56022983 493.95794389 -1773.76030324 487.61847478 -1759.98690796 481.19876099 C-1747.05397424 475.17367898 -1734.06362925 469.29793245 -1721.01123047 463.53662109 C-1710.19363178 458.76047809 -1699.44781499 453.85883794 -1688.73901367 448.84228516 C-1678.47104346 444.04973087 -1668.11762901 439.46017735 -1657.75390625 434.87939453 C-1647.81762972 430.48530586 -1637.92483888 426.01911261 -1628.0859375 421.41015625 C-1617.66246356 416.52866871 -1607.17558801 411.81263008 -1596.6484375 407.16015625 C-1584.2459421 401.67881438 -1571.8959205 396.09619679 -1559.5859375 390.41015625 C-1547.41977957 384.79144607 -1535.2171235 379.26721891 -1522.9609375 373.84765625 C-1510.98606358 368.5524156 -1499.04922631 363.18244417 -1487.1484375 357.72265625 C-1473.79394132 351.59698174 -1460.40749254 345.54959186 -1446.99343872 339.55511475 C-1441.87693127 337.26720591 -1436.7659998 334.96701886 -1431.65625 332.6640625 C-1430.8349762 332.29393036 -1430.01370239 331.92379822 -1429.1675415 331.54244995 C-1428.33559265 331.16750397 -1427.5036438 330.79255798 -1426.64648438 330.40625 C-1408.5542195 322.25252619 -1390.43796462 314.15499435 -1372.29676819 306.11077881 C-1366.15721576 303.38757429 -1360.0216189 300.65554162 -1353.88671875 297.921875 C-1319.87297492 282.76864985 -1319.87297492 282.76864985 -1304.62689209 276.1211853 C-1302.77630149 275.31367791 -1300.92742445 274.50224701 -1299.07861328 273.69067383 C-1297.9801709 273.2139624 -1296.88172852 272.73725098 -1295.75 272.24609375 C-1294.81623535 271.8392334 -1293.8824707 271.43237305 -1292.92041016 271.01318359 C-1291.51734619 270.46718506 -1291.51734619 270.46718506 -1290.0859375 269.91015625 C-1289.00296387 269.46365723 -1287.91999023 269.0171582 -1286.80419922 268.55712891 C-1281.67708337 267.66501748 -1278.58591364 269.1479112 -1273.9296875 271.22265625 C-1273.0584021 271.59148926 -1272.1871167 271.96032227 -1271.28942871 272.34033203 C-1268.54520356 273.5090297 -1265.81532426 274.70726777 -1263.0859375 275.91015625 C-1261.39494376 276.64157942 -1259.70354663 277.37207082 -1258.01171875 278.1015625 C-1252.85473847 280.33753156 -1247.71981407 282.62175615 -1242.5859375 284.91015625 C-1240.70302053 285.74624561 -1238.81996108 286.58201416 -1236.93676758 287.41748047 C-1233.13091523 289.10666128 -1229.32600525 290.79793609 -1225.52197266 292.49121094 C-1220.55945053 294.70010712 -1215.59458818 296.90368711 -1210.62890625 299.10546875 C-1168.14134657 317.95066887 -1125.74970373 337.01089054 -1083.3984375 356.16015625 C-1082.5168396 356.55861755 -1081.6352417 356.95707886 -1080.72692871 357.36761475 C-1079.01675161 358.14069255 -1077.3067551 358.91417002 -1075.59695435 359.68807983 C-1073.98006359 360.41935802 -1072.36246833 361.14908087 -1070.74411011 361.87710571 C-1067.19525462 363.47781244 -1063.66542604 365.10081626 -1060.17333984 366.82226562 C-1059.02430176 367.38236328 -1057.87526367 367.94246094 -1056.69140625 368.51953125 C-1055.7171167 369.00905273 -1054.74282715 369.49857422 -1053.73901367 370.00292969 C-1048.43306183 371.81731425 -1044.0231592 369.16959668 -1039.1640625 366.98046875 C-1038.48418274 366.6786972 -1037.80430298 366.37692566 -1037.1038208 366.06600952 C-1034.84536189 365.06122408 -1032.59058496 364.04846241 -1030.3359375 363.03515625 C-1028.73116831 362.31825075 -1027.12634956 361.6014562 -1025.52148438 360.88476562 C-1012.61954242 355.1081884 -999.79515362 349.16729392 -986.98205566 343.19683838 C-974.34179954 337.30827979 -961.64684499 331.56558627 -948.88720703 325.94091797 C-936.71926025 320.57278545 -924.64019224 315.0285694 -912.5859375 309.41015625 C-899.07857721 303.11445965 -885.52347287 296.95201894 -871.88720703 290.94091797 C-859.71926025 285.57278545 -847.64019224 280.0285694 -835.5859375 274.41015625 C-822.07857721 268.11445965 -808.52347287 261.95201894 -794.88720703 255.94091797 C-782.71925851 250.57278469 -770.64022614 245.02849928 -758.5859375 239.41015625 C-745.03313099 233.09363183 -731.43315384 226.90780915 -717.75244141 220.87353516 C-705.97230293 215.67465415 -694.26548798 210.33101179 -682.5859375 204.91015625 C-670.17611762 199.15035916 -657.7286837 193.49397035 -645.2109375 187.97265625 C-631.39177477 181.87695486 -617.67542832 175.57907386 -603.98580933 169.19821167 C-591.05323993 163.17332016 -578.06325342 157.29776656 -565.01123047 151.53662109 C-555.32142283 147.25841589 -545.6789568 142.90234091 -536.0859375 138.41015625 C-525.81023676 133.60808576 -515.49937934 128.88968784 -505.14794922 124.25317383 C-503.5374687 123.53086154 -501.92807019 122.8061314 -500.31982422 122.07885742 C-498.07043901 121.06251217 -495.81710723 120.05547893 -493.5625 119.05078125 C-492.89497711 118.74726746 -492.22745422 118.44375366 -491.53970337 118.13104248 C-482.62456084 114.19199529 -482.62456084 114.19199529 -478.25268555 115.42877197 C-476.09092939 116.275852 -474.00722326 117.22613586 -471.91015625 118.22265625 C-471.12053497 118.58285858 -470.3309137 118.94306091 -469.5173645 119.31417847 C-466.92930448 120.49872879 -464.35170443 121.7044592 -461.7734375 122.91015625 C-459.96840393 123.73999419 -458.16264932 124.56826545 -456.35620117 125.39501953 C-451.78644641 127.48986864 -447.22424645 129.60061846 -442.66394043 131.71594238 C-436.08639184 134.76287443 -429.49364188 137.77667369 -422.8984375 140.78515625 C-422.23585937 141.08794495 -421.57328125 141.39073364 -420.890625 141.70269775 C-410.92771704 146.25004142 -400.89317261 150.59846337 -390.7734375 154.78515625 C-390.1517569 155.04294861 -389.53007629 155.30074097 -388.88955688 155.56634521 C-383.51043183 157.7955158 -383.51043183 157.7955158 -378.0859375 159.91015625 C-377.44237305 160.1721582 -376.79880859 160.43416016 -376.13574219 160.70410156 C-372.89868271 161.02950392 -370.65620437 159.72135265 -367.71484375 158.40234375 C-367.0898851 158.12591034 -366.46492645 157.84947693 -365.82102966 157.56466675 C-363.75843487 156.64908075 -361.70361649 155.71725497 -359.6484375 154.78515625 C-358.19511112 154.13603659 -356.74132797 153.4879387 -355.28710938 152.84082031 C-351.57828538 151.187347 -347.87550841 149.52077639 -344.1741333 147.85070801 C-341.09500749 146.46382791 -338.01043791 145.08938103 -334.92578125 143.71484375 C-328.98715194 141.06527535 -323.05568682 138.40001686 -317.12646484 135.72949219 C-312.70397014 133.73762843 -308.27967852 131.74976942 -303.85546875 129.76171875 C-272.10222875 115.49023794 -240.36668823 101.17951311 -208.71362305 86.68701172 C-198.33024952 81.93313871 -187.93726016 77.20081429 -177.53845215 72.48080444 C-169.85412451 68.99270801 -162.17387804 65.49613 -154.50390625 61.9765625 C-139.8616321 55.25979175 -125.19647612 48.60756092 -110.4609375 42.09765625 C-95.63722479 35.54766255 -80.92174326 28.77917989 -66.22851562 21.94213867 C-54.99476694 16.71553388 -43.74199338 11.53389258 -32.4609375 6.41015625 C-31.77093658 6.09642059 -31.08093567 5.78268494 -30.37002563 5.45944214 C-26.27956024 3.60020707 -22.1891576 1.74110537 -18.0859375 -0.08984375 C-16.33917725 -0.95319336 -16.33917725 -0.95319336 -14.55712891 -1.83398438 C-9.03805888 -3.83075581 -5.16574914 -2.34059158 0 0 Z " fill="#1F1F1F" transform="translate(6136.0859375,2338.08984375)"/>
</svg>
